<svg width="40" height="40" viewBox="0 0 40 40" fill="none" xmlns="http://www.w3.org/2000/svg">
<path d="M8.80585 23.0502C8.59802 22.814 8.34839 22.6245 8.05695 22.4808C7.7655 22.3373 7.44232 22.2656 7.08771 22.2656C6.73798 22.2656 6.41724 22.334 6.12549 22.4704C5.83405 22.6071 5.58075 22.7899 5.36621 23.0191C5.15167 23.2483 4.98505 23.5132 4.86603 23.8141C4.74701 24.1153 4.6875 24.4278 4.6875 24.7516C4.6875 25.0711 4.74457 25.3815 4.85901 25.6821C4.97314 25.9833 5.13428 26.2506 5.3421 26.4844C5.54932 26.7181 5.79895 26.9067 6.0907 27.0502C6.38214 27.1936 6.70532 27.2656 7.05994 27.2656C7.40997 27.2656 7.73163 27.196 8.02551 27.0572C8.3194 26.9183 8.57147 26.7343 8.78143 26.5051C8.99139 26.2759 9.15588 26.012 9.2749 25.7135C9.39362 25.4147 9.45312 25.1035 9.45312 24.7794C9.45312 24.4647 9.39728 24.1568 9.28528 23.8559C9.17328 23.555 9.01337 23.2864 8.80585 23.0502ZM8.00812 25.2307C7.96844 25.3885 7.90894 25.5286 7.82959 25.6509C7.75024 25.7736 7.64771 25.8731 7.52167 25.9497C7.39563 26.026 7.2464 26.0641 7.07397 26.0641C6.90582 26.0641 6.75903 26.0272 6.633 25.9531C6.50696 25.8792 6.40198 25.7819 6.31805 25.6613C6.23413 25.5411 6.17218 25.4031 6.13251 25.2481C6.09283 25.0931 6.073 24.9323 6.073 24.7653C6.073 24.6036 6.09283 24.4449 6.13251 24.2899C6.17218 24.1348 6.23291 23.9957 6.3147 23.873C6.39618 23.7506 6.49872 23.652 6.62262 23.5779C6.74591 23.504 6.89423 23.4668 7.06696 23.4668C7.2348 23.4668 7.3819 23.5028 7.50763 23.5745C7.63367 23.6462 7.73743 23.7411 7.81921 23.8593C7.9007 23.9771 7.96265 24.1138 8.00476 24.2688C8.04657 24.4241 8.06763 24.585 8.06763 24.7516C8.06763 24.9139 8.04749 25.0735 8.00812 25.2307Z" fill="white"/>
<path d="M11.04 28.9008C11.1145 28.848 11.1899 28.8 11.2662 28.757C11.3422 28.714 11.4148 28.6688 11.4841 28.6215C11.5421 28.5828 11.5976 28.541 11.6501 28.4964C11.7026 28.4521 11.7477 28.4027 11.785 28.3484C11.8225 28.2941 11.8521 28.2336 11.8744 28.1671C11.8964 28.1003 11.9073 28.024 11.9073 27.9379C11.9073 27.7017 11.825 27.5177 11.6605 27.3856C11.496 27.2537 11.2546 27.1875 10.9363 27.1875C10.8173 27.1875 10.701 27.1973 10.5875 27.2168C10.4739 27.236 10.3668 27.2635 10.2658 27.298C10.1648 27.3328 10.0729 27.3746 9.98993 27.4231C9.90692 27.4719 9.83887 27.5253 9.78638 27.5836L10.2844 28.1714C10.3729 28.0658 10.4581 27.9895 10.5399 27.9422C10.6213 27.8949 10.708 27.8714 10.7993 27.8714C10.8768 27.8714 10.9375 27.8879 10.9818 27.9214C11.0263 27.9547 11.0483 28.006 11.0483 28.0756C11.0483 28.1006 11.0422 28.1235 11.0297 28.1442C11.0172 28.1653 10.9888 28.1909 10.9445 28.2214C10.9003 28.252 10.8347 28.2916 10.7474 28.3401C10.6601 28.389 10.542 28.4534 10.3925 28.5339C10.2762 28.598 10.1785 28.6633 10.0998 28.7299C10.0211 28.7967 9.95666 28.8724 9.90692 28.9572C9.85687 29.0417 9.82086 29.137 9.79889 29.2426C9.77661 29.3481 9.76562 29.4705 9.76562 29.6094H11.9531V28.9008H11.04Z" fill="white"/>
<path d="M37.272 12.8848C36.2167 10.8163 34.119 9.53125 31.7969 9.53125C29.4748 9.53125 27.377 10.8163 26.3217 12.8851L23.5938 18.2339V21.0938C23.5938 23.9233 25.61 26.2909 28.2812 26.8353V30.0781H30.625V32.9688C30.625 35.5536 28.5223 37.6562 25.9375 37.6562C23.3527 37.6562 21.25 35.5536 21.25 32.9688V7.03125C21.25 3.1543 18.0957 0 14.2188 0H14.0625C10.4495 0 7.4649 2.73926 7.07489 6.25H4.6875V11.0553C2.0163 11.5997 0 13.9673 0 16.7969V40H16.4062V16.7969C16.4062 13.9673 14.39 11.5997 11.7188 11.0553V6.25H9.44122C9.81445 4.03595 11.7441 2.34375 14.0625 2.34375H14.2188C16.8036 2.34375 18.9062 4.44641 18.9062 7.03125V32.9688C18.9062 36.8457 22.0605 40 25.9375 40C29.8145 40 32.9688 36.8457 32.9688 32.9688V30.0781H35.3125V26.8353C37.9837 26.2909 40 23.9233 40 21.0938V18.2339L37.272 12.8848ZM9.375 8.59375V10.9375H7.03125V8.59375H9.375ZM2.34375 19.9219H14.0625V31.9531H2.34375V19.9219ZM2.34375 37.6562V34.2969H14.0625V37.6562H2.34375ZM14.0625 16.7969V17.5781H2.34375V16.7969C2.34375 14.8584 3.9209 13.2812 5.85938 13.2812H10.5469C12.4854 13.2812 14.0625 14.8584 14.0625 16.7969ZM32.9688 27.7344H30.625V23.2031C30.625 22.5571 31.1508 22.0312 31.7969 22.0312C32.4429 22.0312 32.9688 22.5571 32.9688 23.2031V27.7344ZM37.6562 21.0938C37.6562 22.6215 36.6766 23.924 35.3125 24.408V23.2031C35.3125 21.2646 33.7354 19.6875 31.7969 19.6875C29.8584 19.6875 28.2812 21.2646 28.2812 23.2031V24.408C26.9171 23.924 25.9375 22.6215 25.9375 21.0938V18.7973L28.4097 13.9499C29.0625 12.67 30.3601 11.875 31.7969 11.875C33.2336 11.875 34.5312 12.67 35.184 13.9499L37.6562 18.7973V21.0938Z" fill="white"/>
<path d="M30.625 15H32.9688V17.3438H30.625V15Z" fill="white"/>
</svg>
