<svg width="30" height="30" viewBox="0 0 30 30" fill="white" xmlns="http://www.w3.org/2000/svg">
<g clip-path="url(#clip0)">
<path d="M25.607 5.27209C26.0924 5.27209 26.486 4.87857 26.486 4.39313C26.486 3.90769 26.0924 3.51416 25.607 3.51416C25.1216 3.51416 24.728 3.90769 24.728 4.39313C24.728 4.87857 25.1216 5.27209 25.607 5.27209Z" fill="white"/>
<path d="M28.7151 7.50067C30.4286 5.78709 30.4286 2.99884 28.7151 1.28521C27.0015 -0.428372 24.2132 -0.428431 22.4996 1.28521C21.5185 2.2663 21.0646 3.65714 21.2566 5.01447L18.3698 7.90116L16.5052 6.03652C16.3404 5.8717 16.1168 5.77906 15.8837 5.77906C15.6506 5.77906 15.427 5.87164 15.2622 6.03647L12.776 8.5226C12.6112 8.68743 12.5186 8.91102 12.5186 9.14417C12.5186 9.37731 12.6112 9.60091 12.776 9.76573L14.6407 11.6304L7.22632 19.0447C5.42315 16.6365 5.61557 13.1969 7.80358 11.0089L8.42515 10.3873L9.04665 11.0089C9.27581 11.2381 9.61255 11.3226 9.92292 11.2286C10.2332 11.1347 10.4666 10.8775 10.5301 10.5597L11.7732 4.34421C11.8308 4.05599 11.7406 3.7581 11.5328 3.55033C11.325 3.34255 11.0273 3.25232 10.7389 3.30998L4.52356 4.5531C4.20563 4.61668 3.94858 4.85006 3.85465 5.16031C3.76072 5.47062 3.84516 5.80736 4.07438 6.03652L4.69588 6.65809L2.83125 8.52272C-0.275103 11.6291 -0.785807 16.2567 1.1059 19.8563C2.07996 21.7099 2.57379 23.5031 2.57379 25.1861V26.5474C2.57379 27.0329 2.96736 27.4264 3.45276 27.4264H4.81418C6.49717 27.4264 8.29032 27.9203 10.1439 28.8943C13.7418 30.7851 18.3696 30.2768 21.4775 27.169L23.3421 25.3044L23.9636 25.9259C24.1928 26.1551 24.5295 26.2396 24.8399 26.1456C25.1502 26.0517 25.3835 25.7946 25.4471 25.4767L26.6901 19.2612C26.7477 18.973 26.6576 18.6751 26.4497 18.4673C26.242 18.2596 25.9439 18.1693 25.6558 18.227L19.4405 19.47C19.1226 19.5336 18.8655 19.767 18.7716 20.0773C18.6777 20.3875 18.7621 20.7243 18.9913 20.9536L19.6128 21.5751L18.9913 22.1966C16.8032 24.3847 13.3636 24.577 10.9555 22.7739L18.3697 15.3596L20.2343 17.2242C20.5776 17.5674 21.1342 17.5674 21.4774 17.2242L23.9636 14.738C24.1284 14.5732 24.2211 14.3496 24.2211 14.1164C24.2211 13.8833 24.1285 13.6598 23.9636 13.4949L22.099 11.6302L24.9857 8.74356C26.3431 8.93575 27.734 8.4817 28.7151 7.50067ZM24.0753 7.16803L20.2344 11.0089C20.0696 11.1737 19.977 11.3973 19.977 11.6305C19.977 11.8636 20.0696 12.0872 20.2344 12.252L22.0991 14.1167L20.856 15.3597L18.9913 13.4951C18.6481 13.1518 18.0915 13.1519 17.7483 13.4951L9.04665 22.1967C8.88183 22.3615 8.78919 22.5851 8.78919 22.8183C8.78919 23.0514 8.88177 23.275 9.04665 23.4398C12.1313 26.5243 17.1501 26.5243 20.2344 23.4398L21.4775 22.1968C21.8208 21.8535 21.8208 21.2969 21.4775 20.9537L21.3958 20.872L24.7079 20.2096L24.0455 23.5216L23.9637 23.4399C23.7989 23.2751 23.5753 23.1825 23.3422 23.1825C23.1091 23.1825 22.8855 23.2751 22.7207 23.4399L20.2345 25.9261C17.7701 28.3904 14.0437 28.9579 10.9617 27.3384C8.85335 26.2304 6.78511 25.6686 4.8143 25.6686H4.33184V25.1862C4.33184 23.2154 3.77004 21.1471 2.66215 19.0387C1.0425 15.9567 1.61004 12.2303 4.07438 9.76596L6.56057 7.27977C6.90387 6.93647 6.90387 6.37994 6.56057 6.0367L6.47884 5.95496L9.79091 5.29256L9.12851 8.60458L9.04677 8.5229C8.70359 8.17959 8.147 8.17959 7.8037 8.5229L6.56057 9.76596C3.47613 12.8504 3.47613 17.8693 6.56057 20.9538C6.7254 21.1186 6.94899 21.2112 7.18208 21.2112C7.41516 21.2112 7.63882 21.1186 7.80358 20.9538L16.5052 12.2522C16.6701 12.0874 16.7627 11.8638 16.7627 11.6307C16.7627 11.3975 16.6701 11.1739 16.5052 11.0091L14.6406 9.14446L15.8837 7.90139L17.7483 9.76602C17.9131 9.93085 18.1367 10.0235 18.3698 10.0235C18.6029 10.0235 18.8266 9.93091 18.9913 9.76608L22.8322 5.9252C23.054 5.70336 23.1409 5.37998 23.0599 5.07687C22.8174 4.16867 23.079 3.19226 23.7426 2.52857C24.7708 1.50036 26.4437 1.50036 27.472 2.52857C28.5001 3.55677 28.5001 5.22969 27.472 6.25783C26.8082 6.92153 25.8317 7.18315 24.9237 6.94063C24.6205 6.85942 24.2971 6.94619 24.0753 7.16803Z" fill="white"/>
</g>
<defs>
<clipPath id="clip0">
<rect width="30" height="30" fill="white"/>
</clipPath>
</defs>
</svg>
