<svg width="30" height="30" viewBox="0 0 30 30" fill="none" xmlns="http://www.w3.org/2000/svg">
<g clip-path="url(#clip0)">
<path d="M25.607 5.27191C26.0924 5.27191 26.486 4.87838 26.486 4.39294C26.486 3.9075 26.0924 3.51398 25.607 3.51398C25.1216 3.51398 24.728 3.9075 24.728 4.39294C24.728 4.87838 25.1216 5.27191 25.607 5.27191Z" fill="black"/>
<path d="M28.7153 7.50055C30.4289 5.78697 30.4289 2.99872 28.7153 1.28508C27.0018 -0.428495 24.2135 -0.428553 22.4999 1.28508C21.5188 2.26618 21.0648 3.65702 21.2568 5.01435L18.3701 7.90103L16.5055 6.0364C16.3407 5.87158 16.1171 5.77894 15.884 5.77894C15.6509 5.77894 15.4272 5.87152 15.2625 6.03634L12.7763 8.52248C12.6115 8.6873 12.5188 8.9109 12.5188 9.14404C12.5188 9.37719 12.6114 9.60078 12.7763 9.76561L14.6409 11.6302L7.22656 19.0445C5.42339 16.6364 5.61582 13.1967 7.80383 11.0087L8.42539 10.3872L9.0469 11.0087C9.27606 11.238 9.6128 11.3224 9.92317 11.2285C10.2335 11.1345 10.4668 10.8774 10.5304 10.5596L11.7734 4.34409C11.831 4.05587 11.7409 3.75798 11.533 3.5502C11.3253 3.34243 11.0275 3.2522 10.7391 3.30985L4.5238 4.55298C4.20587 4.61655 3.94882 4.84993 3.85489 5.16019C3.76097 5.4705 3.8454 5.80724 4.07462 6.0364L4.69613 6.65796L2.83149 8.5226C-0.274859 11.629 -0.785563 16.2566 1.10614 19.8562C2.0802 21.7097 2.57403 23.5029 2.57403 25.1859V26.5473C2.57403 27.0328 2.96761 27.4263 3.453 27.4263H4.81443C6.49742 27.4263 8.29057 27.9202 10.1441 28.8942C13.742 30.785 18.3698 30.2767 21.4777 27.1689L23.3423 25.3042L23.9638 25.9257C24.193 26.155 24.5297 26.2395 24.8401 26.1455C25.1504 26.0515 25.3837 25.7944 25.4473 25.4766L26.6904 19.2611C26.748 18.9729 26.6578 18.675 26.45 18.4672C26.2422 18.2594 25.9441 18.1692 25.6561 18.2269L19.4407 19.4699C19.1228 19.5335 18.8658 19.7669 18.7718 20.0771C18.6779 20.3874 18.7623 20.7242 18.9916 20.9535L19.6131 21.575L18.9916 22.1965C16.8035 24.3846 13.3639 24.5768 10.9557 22.7737L18.3699 15.3594L20.2346 17.2241C20.5778 17.5673 21.1344 17.5673 21.4776 17.2241L23.9638 14.7379C24.1287 14.5731 24.2213 14.3495 24.2213 14.1163C24.2213 13.8832 24.1287 13.6596 23.9638 13.4948L22.0992 11.6301L24.986 8.74344C26.3433 8.93563 27.7342 8.48158 28.7153 7.50055ZM24.0756 7.16791L20.2347 11.0088C20.0699 11.1736 19.9772 11.3972 19.9772 11.6304C19.9772 11.8635 20.0698 12.0871 20.2347 12.2519L22.0993 14.1166L20.8562 15.3596L18.9916 13.495C18.6483 13.1517 18.0917 13.1517 17.7485 13.495L9.0469 22.1966C8.88207 22.3614 8.78944 22.585 8.78944 22.8182C8.78944 23.0513 8.88201 23.2749 9.0469 23.4397C12.1315 26.5242 17.1503 26.5242 20.2347 23.4397L21.4778 22.1966C21.8211 21.8533 21.8211 21.2968 21.4778 20.9536L21.396 20.8718L24.7081 20.2094L24.0457 23.5215L23.964 23.4398C23.7991 23.275 23.5755 23.1824 23.3425 23.1824C23.1094 23.1824 22.8857 23.275 22.7209 23.4398L20.2348 25.926C17.7704 28.3903 14.0439 28.9578 10.962 27.3383C8.8536 26.2303 6.78535 25.6685 4.81455 25.6685H4.33208V25.1861C4.33208 23.2153 3.77029 21.1469 2.66239 19.0386C1.04274 15.9566 1.61028 12.2302 4.07462 9.76584L6.56082 7.27965C6.90412 6.93634 6.90412 6.37982 6.56082 6.03658L6.47908 5.95484L9.79116 5.29243L9.12875 8.60445L9.04701 8.52277C8.70383 8.17947 8.14725 8.17947 7.80395 8.52277L6.56082 9.76584C3.47638 12.8503 3.47638 17.8691 6.56082 20.9536C6.72564 21.1185 6.94924 21.2111 7.18232 21.2111C7.41541 21.2111 7.63906 21.1185 7.80383 20.9537L16.5055 12.2521C16.6703 12.0873 16.7629 11.8637 16.7629 11.6305C16.7629 11.3974 16.6704 11.1738 16.5055 11.009L14.6409 9.14434L15.884 7.90127L17.7486 9.7659C17.9134 9.93073 18.137 10.0234 18.3701 10.0234C18.6031 10.0234 18.8268 9.93078 18.9916 9.76596L22.8325 5.92507C23.0543 5.70324 23.1411 5.37986 23.0601 5.07675C22.8176 4.16855 23.0792 3.19214 23.7429 2.52845C24.7711 1.50024 26.4439 1.50024 27.4722 2.52845C28.5004 3.55665 28.5004 5.22956 27.4722 6.25771C26.8085 6.9214 25.832 7.18302 24.9239 6.94051C24.6207 6.85929 24.2974 6.94607 24.0756 7.16791Z" fill="black"/>
</g>
<defs>
<clipPath id="clip0">
<rect width="30" height="30" fill="white"/>
</clipPath>
</defs>
</svg>
