<svg width="40" height="35" viewBox="0 0 40 35" fill="none" xmlns="http://www.w3.org/2000/svg">
<path d="M18.3259 16.6238H24.9709V20.1159H18.3259V16.6238Z" fill="#80B4FB"/>
<path d="M10.5937 19.4579L12.3198 20.0881L13.4863 19.1265V11.4023C13.4863 11.0797 13.1918 10.8181 12.8285 10.8181H3.66025C3.29697 10.8181 3.00244 11.0797 3.00244 11.4023V18.0348L4.31181 19.4223H10.3906C10.4603 19.4222 10.5292 19.4344 10.5937 19.4579Z" fill="#E7ECF6"/>
<path d="M12.8283 10.8181H11.1533C11.5166 10.8181 11.8111 11.0797 11.8111 11.4023V19.9025L13.4861 19.1265V11.4023C13.4861 11.0796 13.1916 10.8181 12.8283 10.8181Z" fill="#D8E2F1"/>
<path d="M19.4183 21.6267H16.3516V2.58728C16.3516 2.19149 16.8924 1.99523 17.2045 2.27772L19.0636 3.95987C19.2909 4.16564 19.4183 4.44238 19.4183 4.7307V21.6267Z" fill="#365E7D"/>
<path d="M19.0636 3.95986L17.2045 2.27771C16.8924 1.99521 16.3516 2.19154 16.3516 2.58726V3.36469L17.7865 4.66312C18.0139 4.86889 18.1413 5.14563 18.1413 5.43395V21.6267H19.4183V4.73069C19.4183 4.44237 19.2909 4.16563 19.0636 3.95986Z" fill="#2B4D66"/>
<path d="M39.4142 20.1161C37.7892 21.4425 36.4876 22.7683 35.511 24.0947C35.0142 24.7684 34.6009 25.4427 34.272 26.1164C34.1587 26.3488 34.0548 26.5812 33.9618 26.8136C33.4923 27.9784 33.2735 29.1425 33.304 30.3066C33.3181 30.8568 32.8118 31.3063 32.1931 31.3063H6.87346C5.04064 31.3063 3.5547 29.9861 3.5547 28.3586V25.1097C3.5547 24.9099 3.51251 24.7115 3.43126 24.5249L3.24298 24.0947L0.585938 18.0348H10.3907C10.4602 18.0348 10.5289 18.0466 10.5938 18.0702L15.9063 20.0099C16.0977 20.08 16.3032 20.1161 16.5094 20.1161H39.4142Z" fill="#DF6B57"/>
<path d="M37.2995 20.1161C35.6745 21.4425 34.3729 22.7683 33.3963 24.0948C32.8995 24.7684 32.4862 25.4427 32.1573 26.1164C32.044 26.3488 31.9401 26.5812 31.8471 26.8136C31.3776 27.9784 31.1588 29.1425 31.1893 30.3067C31.2034 30.8568 30.6971 31.3064 30.0784 31.3064H32.1931C32.8118 31.3064 33.3181 30.8568 33.304 30.3067C33.2735 29.1425 33.4923 27.9784 33.9618 26.8136C34.0548 26.5812 34.1587 26.3488 34.272 26.1164C34.6009 25.4427 35.0142 24.7684 35.511 24.0948C36.4876 22.7683 37.7892 21.4425 39.4142 20.1161H37.2995Z" fill="#DD544F"/>
<path d="M10.5113 4.28094H5.97692C5.6202 4.28094 5.33105 4.5377 5.33105 4.85447V10.8181H11.1571V4.85447C11.1572 4.5377 10.868 4.28094 10.5113 4.28094Z" fill="#C3D5EF"/>
<path d="M10.5114 4.28094H9.0708C9.42751 4.28094 9.71664 4.5377 9.71664 4.85447V10.8181H11.1572V4.85447C11.1572 4.5377 10.868 4.28094 10.5114 4.28094Z" fill="#B7C8EA"/>
<path d="M9.68494 18.0347H6.80371V15.655C6.80371 15.4725 6.97027 15.3247 7.17566 15.3247H9.31291C9.51838 15.3247 9.68486 15.4726 9.68486 15.655V18.0347H9.68494Z" fill="#80B4FB"/>
<path d="M31.6162 16.6238H38.2614V20.1159H31.6162V16.6238Z" fill="#B3E59F"/>
<path d="M36.7236 16.6238H38.2615V20.1159H36.7236V16.6238Z" fill="#95D6A4"/>
<path d="M24.9712 16.6238H31.6163V20.1159H24.9712V16.6238Z" fill="#EAB14D"/>
<path d="M30.0784 16.6238H31.6162V20.1159H30.0784V16.6238Z" fill="#E49542"/>
<path d="M31.6162 13.1318H38.2614V16.6239H31.6162V13.1318Z" fill="#365E7D"/>
<path d="M36.7236 13.1318H38.2615V16.6239H36.7236V13.1318Z" fill="#2B4D66"/>
<path d="M26.7954 6.58313H33.4406V10.0752H26.7954V6.58313Z" fill="#B3E59F"/>
<path d="M31.9028 6.58313H33.4407V10.0752H31.9028V6.58313Z" fill="#95D6A4"/>
<path d="M24.9712 13.1318H31.6163V16.6239H24.9712V13.1318Z" fill="#DF6B57"/>
<path d="M30.0784 13.1318H31.6162V16.6239H30.0784V13.1318Z" fill="#DD544F"/>
<path d="M23.4333 16.6238H24.9712V20.1159H23.4333V16.6238Z" fill="#61A2F9"/>
<path d="M0.586914 30.9591C3.8227 30.9591 3.8227 28.8779 7.05856 28.8779C10.2944 28.8779 10.2943 30.9591 13.5302 30.9591C16.7659 30.9591 16.7659 28.8779 20.0015 28.8779C23.2371 28.8779 23.2371 30.9591 26.4727 30.9591C29.7084 30.9591 29.7084 28.8779 32.944 28.8779C36.1795 28.8779 36.1795 30.9591 39.4152 30.9591V34.9994H0.586992L0.586914 30.9591Z" fill="#D3EFFB"/>
<path d="M32.943 28.8779C29.7074 28.8779 29.7074 30.9591 26.4718 30.9591C23.2362 30.9591 23.2362 28.8779 20.0006 28.8779C16.7649 28.8779 16.7649 30.9591 13.5292 30.9591C10.2934 30.9591 10.2934 28.8779 7.05759 28.8779C3.8218 28.8779 3.8218 30.9591 0.585938 30.9591V32.5265C3.82172 32.5265 3.82172 30.4453 7.05759 30.4453C10.2934 30.4453 10.2934 32.5265 13.5292 32.5265C16.7649 32.5265 16.7649 30.4453 20.0006 30.4453C23.2361 30.4453 23.2361 32.5265 26.4718 32.5265C29.7074 32.5265 29.7074 30.4453 32.943 30.4453C36.1786 30.4453 36.1786 32.5265 39.4142 32.5265V30.9591C36.1786 30.9591 36.1786 28.8779 32.943 28.8779Z" fill="#B1E4F9"/>
<path d="M35.5112 24.0946C35.0144 24.7682 34.6011 25.4426 34.2722 26.1162C34.1589 26.3486 34.055 26.581 33.962 26.8134H3.55488V25.1096C3.55488 24.9098 3.5127 24.7114 3.43145 24.5247L3.24316 24.0946H35.5112Z" fill="#E7ECF6"/>
<path d="M32.1573 26.1162C32.044 26.3486 31.9401 26.581 31.8472 26.8134H33.9619C34.3417 25.864 34.8844 24.9442 35.5111 24.0946H33.3964C32.8995 24.7682 32.4863 25.4426 32.1573 26.1162Z" fill="#D8E2F1"/>
<path d="M8.24414 5.6051C7.92047 5.6051 7.6582 5.83807 7.6582 6.12542V6.57088C7.6582 6.85823 7.92047 7.09119 8.24414 7.09119C8.56781 7.09119 8.83008 6.85823 8.83008 6.57088V6.12542C8.83008 5.83807 8.56773 5.6051 8.24414 5.6051Z" fill="black"/>
<path d="M8.24414 7.6701C7.92047 7.6701 7.6582 7.90307 7.6582 8.19042V8.63595C7.6582 8.92331 7.92047 9.15627 8.24414 9.15627C8.56781 9.15627 8.83008 8.92331 8.83008 8.63595V8.19042C8.83008 7.90307 8.56773 7.6701 8.24414 7.6701Z" fill="black"/>
<path d="M5.82031 13.3211V12.8755C5.82031 12.5882 5.55805 12.3552 5.23438 12.3552C4.9107 12.3552 4.64844 12.5882 4.64844 12.8755V13.3211C4.64844 13.6084 4.9107 13.8414 5.23438 13.8414C5.55805 13.8414 5.82031 13.6084 5.82031 13.3211Z" fill="black"/>
<path d="M8.83008 13.3211V12.8755C8.83008 12.5882 8.56781 12.3552 8.24414 12.3552C7.92047 12.3552 7.6582 12.5882 7.6582 12.8755V13.3211C7.6582 13.6084 7.92047 13.8414 8.24414 13.8414C8.56781 13.8414 8.83008 13.6084 8.83008 13.3211Z" fill="black"/>
<path d="M11.2544 13.8414C11.5781 13.8414 11.8403 13.6084 11.8403 13.3211V12.8755C11.8403 12.5882 11.5781 12.3552 11.2544 12.3552C10.9307 12.3552 10.6685 12.5882 10.6685 12.8755V13.3211C10.6685 13.6084 10.9307 13.8414 11.2544 13.8414Z" fill="black"/>
<path d="M39.4141 30.4387C36.7594 30.4387 36.5555 28.8647 34.0645 28.4461C34.7291 25.3443 37.1824 22.6443 39.8105 20.4989C39.9884 20.3538 40.0477 20.1267 39.96 19.9269C39.8723 19.7271 39.6555 19.5956 39.4141 19.5956H38.8472C38.8472 18.9271 38.8472 13.8146 38.8472 13.1317C38.8472 12.8444 38.5849 12.6114 38.2612 12.6114C34.6823 12.6114 27.0559 12.6114 24.9711 12.6114C24.6474 12.6114 24.3852 12.8444 24.3852 13.1317V16.1035H20.0041V6.39004L29.5321 2.9726V6.06279H26.7955C26.4719 6.06279 26.2096 6.29576 26.2096 6.58311V10.0752C26.2096 10.3625 26.4719 10.5955 26.7955 10.5955H28.7449C29.0686 10.5955 29.3309 10.3625 29.3309 10.0752C29.3309 9.78784 29.0686 9.55487 28.7449 9.55487H27.3815V7.10342H32.8548V9.55487H31.0877C30.764 9.55487 30.5017 9.78784 30.5017 10.0752C30.5017 10.3625 30.764 10.5955 31.0877 10.5955H33.4407C33.7644 10.5955 34.0266 10.3625 34.0266 10.0752V6.58311C34.0266 6.29576 33.7644 6.06279 33.4407 6.06279H30.7041V2.55233L32.2505 1.99767C32.5505 1.89007 32.6955 1.58683 32.5744 1.32036C32.4532 1.05396 32.1118 0.925127 31.8116 1.03273C29.2352 1.95681 22.4422 4.39327 20.0041 5.26768V4.73058C20.0041 4.30343 19.8186 3.90022 19.4816 3.59532L17.6227 1.91317C17.313 1.63296 16.8484 1.54798 16.4393 1.69637C16.0301 1.84491 15.7656 2.19456 15.7656 2.58715V6.78797L14.0116 7.41707C13.7116 7.52467 13.5666 7.82791 13.6877 8.09438C13.7799 8.29696 13.9994 8.41996 14.2312 8.41996C14.3043 8.41996 14.3786 8.40775 14.4505 8.38194L15.7656 7.91026V19.3957L14.0723 18.7774V11.4021C14.0723 10.7932 13.5144 10.2977 12.8286 10.2977H11.7434V4.85441C11.7434 4.25126 11.1908 3.76057 10.5115 3.76057H8.83023V2.33268H9.38945C9.71312 2.33268 9.97539 2.09972 9.97539 1.81237C9.97539 1.52502 9.71312 1.29205 9.38945 1.29205H8.83023V0.519766C8.83023 0.232413 8.56797 -0.000549316 8.2443 -0.000549316C7.92062 -0.000549316 7.65836 0.232413 7.65836 0.519766V1.29198H7.09922C6.77555 1.29198 6.51328 1.52495 6.51328 1.8123C6.51328 2.09965 6.77555 2.33262 7.09922 2.33262H7.65836V3.7605H5.97711C5.29797 3.7605 4.74531 4.25119 4.74531 4.85434V10.2977H3.66016C2.97437 10.2977 2.41641 10.7932 2.41641 11.4021V13.932C2.41641 14.2194 2.67867 14.4524 3.00234 14.4524C3.32602 14.4524 3.58828 14.2194 3.58828 13.932V11.4021C3.58828 11.367 3.62055 11.3383 3.66016 11.3383H12.8284C12.868 11.3383 12.9003 11.367 12.9003 11.4021V18.3496L10.8158 17.5885C10.6805 17.5393 10.5374 17.5143 10.3906 17.5143H10.3905H10.2709V15.6549C10.2709 15.1859 9.84117 14.8043 9.31297 14.8043H7.1757C6.6475 14.8043 6.21773 15.1859 6.21773 15.6549V17.5143H3.58828V16.0124C3.58828 15.7251 3.32602 15.4921 3.00234 15.4921C2.67867 15.4921 2.41641 15.7251 2.41641 16.0124V17.5143H0.585937C0.392422 17.5143 0.211484 17.5992 0.102266 17.741C-0.00687499 17.8828 -0.0302344 18.0633 0.0399219 18.2235L2.69687 24.2831L2.88477 24.7124C2.94047 24.8405 2.96875 24.974 2.96875 25.1096V28.3585C2.96875 28.7996 3.06492 29.2365 3.24805 29.6439C2.55141 30.084 1.87312 30.4388 0.585937 30.4388C0.262266 30.4388 0 30.6717 0 30.9591C0 31.2466 0.262266 31.4794 0.585937 31.4794C3.93984 31.4794 4.17961 29.3982 7.05758 29.3982C10.0101 29.3982 10.0866 31.4794 13.5292 31.4794C16.9753 31.4794 17.0445 29.3982 20.0005 29.3982C22.953 29.3982 23.0292 31.4794 26.4717 31.4794C29.9177 31.4794 29.987 29.3982 32.943 29.3982C35.896 29.3982 35.9705 31.4794 39.4141 31.4794C39.7377 31.4794 40 31.2466 40 30.9591C40 30.6717 39.7377 30.4387 39.4141 30.4387ZM5.91719 10.2977V4.85441C5.91719 4.82507 5.94406 4.8012 5.97711 4.8012H10.5114C10.5445 4.8012 10.5714 4.82507 10.5714 4.85441V10.2977H5.91719ZM25.557 19.5956V17.1442H31.0303V19.5956H25.557ZM32.2022 17.1441H37.6754V19.5956H32.2022V17.1441ZM37.6753 16.1035H32.2021V13.652H37.6753V16.1035ZM25.557 13.652H31.0303V16.1035H25.557V13.652ZM24.3852 17.1441V19.5956H20.0041V17.1441H24.3852ZM16.9373 2.77898L18.6451 4.32424C18.7657 4.43337 18.8322 4.57774 18.8322 4.73065V19.5956H16.9373V2.77898ZM7.38961 15.8449H9.09898V17.5143H7.38961V15.8449ZM10.3804 18.555C11.2713 18.8802 14.3656 20.01 15.683 20.4909C15.9467 20.5874 16.2248 20.6363 16.5094 20.6363H37.9604C36.8694 21.6142 35.944 22.5984 35.1976 23.5743H3.64336L1.44289 18.555H10.3804ZM26.4717 30.4387C23.5187 30.4387 23.4441 28.3575 20.0005 28.3575C16.5511 28.3575 16.4895 30.4387 13.5292 30.4387C10.5759 30.4387 10.5014 28.3575 7.05758 28.3575C5.77508 28.3575 4.92898 28.6623 4.24891 29.03C4.17828 28.8124 4.14062 28.5864 4.14062 28.3584V27.3337H23.7997C24.1234 27.3337 24.3856 27.1008 24.3856 26.8134C24.3856 26.526 24.1234 26.2931 23.7997 26.2931H4.14062V25.1095C4.14062 24.9423 4.11859 24.7769 4.075 24.6148H34.4659C34.0893 25.2022 33.7943 25.7548 33.5558 26.293H26.1424C25.8187 26.293 25.5565 26.5259 25.5565 26.8133C25.5565 27.1007 25.8187 27.3336 26.1424 27.3336H33.1595C33.0503 27.6743 32.9608 28.0164 32.8918 28.358C29.4968 28.3799 29.4109 30.4387 26.4717 30.4387Z" fill="black"/>
<path d="M9.5608 32.8766C8.8144 32.8766 8.67721 32.1965 7.44621 32.1965C6.21434 32.1965 6.08005 32.8766 5.33154 32.8766C5.00787 32.8766 4.74561 33.1095 4.74561 33.3969C4.74561 33.6843 5.00787 33.9172 5.33154 33.9172C6.5634 33.9172 6.6977 33.2371 7.44621 33.2371C8.18253 33.2371 8.33987 33.9172 9.5608 33.9172C9.88446 33.9172 10.1467 33.6843 10.1467 33.3969C10.1467 33.1095 9.88446 32.8766 9.5608 32.8766Z" fill="black"/>
<path d="M22.1148 32.8766C21.3683 32.8766 21.2312 32.1965 20.0001 32.1965C18.7653 32.1965 18.6369 32.8766 17.8855 32.8766C17.5618 32.8766 17.2996 33.1095 17.2996 33.3969C17.2996 33.6843 17.5618 33.9172 17.8855 33.9172C19.1172 33.9172 19.2517 33.2371 20.0001 33.2371C20.7466 33.2371 20.8837 33.9172 22.1148 33.9172C22.4384 33.9172 22.7007 33.6843 22.7007 33.3969C22.7007 33.1095 22.4383 32.8766 22.1148 32.8766Z" fill="black"/>
<path d="M34.1458 32.8766C33.4094 32.8766 33.2521 32.1965 32.0312 32.1965C30.7993 32.1965 30.665 32.8766 29.9165 32.8766C29.5928 32.8766 29.3306 33.1095 29.3306 33.3969C29.3306 33.6843 29.5928 33.9172 29.9165 33.9172C31.1484 33.9172 31.2827 33.2371 32.0312 33.2371C32.7776 33.2371 32.9148 33.9172 34.1458 33.9172C34.4694 33.9172 34.7317 33.6843 34.7317 33.3969C34.7317 33.1095 34.4693 32.8766 34.1458 32.8766Z" fill="black"/>
<path d="M30.9573 22.6993H32.031C32.3547 22.6993 32.6169 22.4664 32.6169 22.179C32.6169 21.8916 32.3547 21.6587 32.031 21.6587H30.9573C30.6336 21.6587 30.3713 21.8916 30.3713 22.179C30.3713 22.4664 30.6337 22.6993 30.9573 22.6993Z" fill="black"/>
</svg>
