<svg width="50" height="50" viewBox="0 0 50 50" fill="none" xmlns="http://www.w3.org/2000/svg">
<g clip-path="url(#clip0)">
<path d="M48.1787 24.5731C47.5874 24.4572 46.9867 24.5784 46.4867 24.9143C46.0726 25.1926 45.7686 25.5908 45.6106 26.0552L43.0411 24.9331C43.0464 24.7573 43.049 24.584 43.049 24.4152C43.049 22.9044 42.8599 21.4043 42.4867 19.9511L43.6393 19.1693C44.3698 19.8092 45.4316 20.0005 46.3612 19.5966C47.6121 19.0531 48.2112 17.6055 47.7251 16.3012L47.1825 14.845C46.6906 13.5247 45.2756 12.8291 43.9613 13.2604C43.2962 13.4788 42.7609 13.9448 42.4543 14.5724C42.2798 14.9294 42.1918 15.3123 42.1916 15.697L40.884 15.8796C40.7049 15.5512 40.5092 15.2184 40.3002 14.8869C40.084 14.544 39.6307 14.4414 39.288 14.6574C38.945 14.8736 38.8423 15.3267 39.0584 15.6696C39.3051 16.0609 39.5311 16.453 39.7303 16.8352C39.9302 17.2184 40.3517 17.4358 40.7784 17.3763L43.1364 17.0471C43.3552 17.0166 43.5487 16.8891 43.6629 16.7C43.7772 16.5109 43.8003 16.2804 43.7258 16.0725C43.6245 15.7903 43.6413 15.4864 43.7729 15.217C43.9043 14.9482 44.1337 14.7487 44.4192 14.655C44.9728 14.4734 45.595 14.7886 45.8071 15.3577L46.3497 16.8138C46.5597 17.3773 46.3024 18.0219 45.7762 18.2507C45.2724 18.4695 44.6792 18.2819 44.3958 17.8144C44.2916 17.6425 44.1212 17.5209 43.9248 17.478C43.7284 17.4351 43.5228 17.4749 43.3564 17.5877L41.4006 18.9143C41.0378 19.1603 40.8726 19.6101 40.9896 20.0336C41.3822 21.4551 41.5812 22.9294 41.5812 24.4153C41.5812 24.6587 41.5751 24.9131 41.5631 25.1716C41.5437 25.5925 41.7896 25.9884 42.1749 26.1566L45.8416 27.7579C46.0456 27.847 46.2789 27.8387 46.4759 27.7355C46.6731 27.6323 46.8126 27.4452 46.8555 27.2268L46.9717 26.6348C47.0122 26.4284 47.1307 26.2501 47.3053 26.1328C47.4798 26.0154 47.6896 25.9731 47.896 26.0137C48.3222 26.0972 48.6009 26.5119 48.5173 26.938L47.916 30.0024C47.8741 30.2158 47.7501 30.3977 47.5668 30.5147C47.3836 30.6316 47.1658 30.667 46.9535 30.6152C46.5523 30.5167 46.2945 30.087 46.3787 29.6572L46.3948 29.5753C46.438 29.3543 46.3775 29.1256 46.2304 28.955C46.0833 28.7843 45.8644 28.6899 45.6411 28.701L41.6748 28.8819C41.2549 28.901 40.8836 29.1826 40.7509 29.583C40.3834 30.6925 39.8957 31.7645 39.3012 32.769C39.0797 33.143 39.1186 33.6172 39.3978 33.9489L41.1524 36.0335C41.2828 36.1884 41.4713 36.2824 41.6733 36.2937C41.8754 36.3046 42.0732 36.232 42.2197 36.0926C42.6131 35.7185 43.211 35.6865 43.6415 36.0159C43.8746 36.1942 44.0241 36.4526 44.0629 36.7434C44.1016 37.0342 44.0246 37.3227 43.8464 37.5557L43.338 38.2202C42.9727 38.6974 42.2905 38.8201 41.8172 38.494C41.4149 38.2167 41.2429 37.7001 41.3988 37.2375C41.5204 36.8773 41.3467 36.484 40.9985 36.3311L38.4708 35.2209C38.0688 35.0441 37.5996 35.144 37.3029 35.4695C36.1759 36.7072 34.8743 37.7616 33.4344 38.6037C33.0707 38.816 32.8722 39.2373 32.9401 39.6519L33.5872 43.5977C33.6232 43.8173 33.7569 44.0087 33.9507 44.1181C34.1446 44.2275 34.3773 44.243 34.5841 44.1604L35.144 43.9363C35.3459 43.8556 35.5661 43.8609 35.7639 43.9513C35.9617 44.0415 36.1098 44.205 36.1815 44.4117C36.3167 44.802 36.0958 45.252 35.6892 45.4147L32.8297 46.5586C32.6278 46.6394 32.4078 46.634 32.2098 46.5437C32.0122 46.4535 31.8639 46.29 31.7923 46.0834C31.6571 45.6931 31.8778 45.243 32.2842 45.0804L32.3616 45.0495C32.5708 44.9658 32.7299 44.7908 32.7933 44.5746C32.8566 44.3584 32.8173 44.1252 32.6864 43.9418L30.3795 40.7095C30.1355 40.3673 29.6972 40.2085 29.2897 40.3142C27.9447 40.6629 26.5543 40.8397 25.157 40.8397C24.0506 40.8397 22.9414 40.7279 21.8606 40.5076C21.4479 40.4235 21.0191 40.6048 20.7928 40.9592L18.4838 44.5806C18.3641 44.7682 18.3361 45 18.4077 45.2107C18.479 45.4215 18.6422 45.5885 18.8513 45.6647L18.933 45.6945C19.2134 45.7967 19.4372 46.002 19.5631 46.2725C19.689 46.543 19.702 46.8464 19.5999 47.1268C19.5704 47.2073 19.5555 47.2924 19.5555 47.3782C19.5555 47.6558 19.4736 47.8661 19.3248 47.9701C19.1762 48.0742 18.9507 48.0793 18.6898 47.984L15.8532 46.9497C15.2852 46.7426 14.9828 46.1092 15.179 45.5378C15.2727 45.2653 15.4742 45.0438 15.7467 44.9139C16.0344 44.7766 16.369 44.7595 16.6642 44.8672L16.7292 44.8909C16.9407 44.9682 17.1761 44.9438 17.3675 44.825C17.559 44.7062 17.6852 44.5061 17.71 44.2822L18.18 40.0381C18.2263 39.6204 18.006 39.2101 17.6318 39.017C15.9159 38.1308 14.3807 36.9588 13.0692 35.5337C12.7806 35.2198 12.3222 35.1174 11.9287 35.2789L8.46713 36.6985C8.27504 36.7772 8.12533 36.9336 8.05507 37.1289C7.98472 37.3242 8.00047 37.5402 8.09822 37.7233C8.3179 38.1343 8.18923 38.6377 7.79899 38.8943C7.39672 39.159 6.83348 39.0352 6.54384 38.6183L5.6572 37.342C5.37284 36.9327 5.44056 36.3833 5.81132 36.0911C6.00301 35.94 6.24089 35.8739 6.48063 35.9047C6.72222 35.9358 6.93593 36.0597 7.08261 36.2536C7.2153 36.4292 7.41981 36.5359 7.63979 36.5444C7.85898 36.5529 8.0718 36.4623 8.2176 36.2974L10.6557 33.5417C10.9418 33.2183 10.9931 32.7466 10.7832 32.3675C10.521 31.8947 10.2772 31.3968 10.0586 30.8876C9.89851 30.5153 9.46708 30.343 9.09456 30.503C8.72213 30.6629 8.54991 31.0945 8.7098 31.4669C8.9058 31.923 9.12039 32.3711 9.34956 32.8028L7.60329 34.7767C7.32245 34.6045 7.0056 34.4922 6.66811 34.4487C6.03334 34.3672 5.40689 34.541 4.90286 34.9381C3.92345 35.71 3.7254 37.1337 4.45195 38.1794L5.33859 39.4556C6.07845 40.5206 7.54389 40.8187 8.60569 40.1205C9.39976 39.5982 9.78246 38.6873 9.64889 37.8L12.2009 36.7534C13.5115 38.1296 15.0184 39.2798 16.6878 40.1782L16.3387 43.3307C15.9197 43.3188 15.4981 43.4059 15.1147 43.5887C14.4838 43.8897 14.0136 44.4124 13.7909 45.0606C13.3367 46.3833 14.0363 47.8492 15.3505 48.3284L18.187 49.3627C18.4716 49.4665 18.7577 49.5178 19.0331 49.5178C19.448 49.5178 19.8391 49.4014 20.1665 49.1724C20.68 48.813 20.987 48.2108 21.0203 47.5066C21.2106 46.8928 21.167 46.2393 20.8938 45.6526C20.7187 45.2765 20.4619 44.955 20.144 44.7068L21.8673 42.0039C24.342 42.4643 26.9225 42.3966 29.3611 41.8089L31.0358 44.1553C30.3767 44.7518 30.1029 45.6905 30.4053 46.5637C30.6096 47.1531 31.0339 47.6201 31.6001 47.8787C32.1585 48.1336 32.8051 48.1491 33.3749 47.9213L36.2344 46.7774C37.3769 46.3203 37.963 45.07 37.5684 43.9311C37.3642 43.3418 36.9399 42.8747 36.3737 42.6161C35.9092 42.4039 35.3832 42.3575 34.8914 42.4794L34.4378 39.7142C35.8115 38.8792 37.0651 37.8645 38.1709 36.6923L39.8786 37.4423C39.8309 38.3196 40.2376 39.188 40.9843 39.7026C42.1106 40.4787 43.6565 40.2192 44.5037 39.1122L45.0121 38.4477C45.4287 37.9033 45.6084 37.2293 45.5179 36.5498C45.4275 35.8703 45.078 35.2667 44.5335 34.8501C43.7393 34.2424 42.7024 34.1606 41.8487 34.5812L40.7226 33.2434C41.2489 32.3167 41.6928 31.3407 42.0455 30.3343L44.9241 30.2029C45.0668 31.0804 45.7062 31.8201 46.6037 32.0405C47.2094 32.1893 47.832 32.0866 48.3566 31.7517C48.8739 31.4215 49.2383 30.8869 49.3564 30.2848L49.9577 27.2204C50.197 26.0001 49.3991 24.8125 48.1787 24.5731V24.5731Z" fill="white"/>
<path d="M4.72842 26.5556L7.47924 27.1909C7.53913 27.5734 7.6132 27.9618 7.70029 28.3492C7.77691 28.6905 8.07986 28.9225 8.41569 28.9224C8.46892 28.9224 8.52304 28.9165 8.57715 28.9044C8.97257 28.8156 9.22121 28.4231 9.13236 28.0276C9.03128 27.577 8.94918 27.1258 8.88851 26.6865C8.83068 26.2684 8.51619 25.9237 8.10609 25.8291L4.2101 24.9294C3.99355 24.8793 3.76536 24.9303 3.59069 25.068C3.41593 25.2058 3.31308 25.4154 3.31113 25.6379L3.30711 26.094C3.30252 26.6046 2.88341 27.0201 2.37272 27.0201C2.12956 27.0201 1.90127 26.925 1.73013 26.7522C1.55888 26.5794 1.46583 26.3505 1.46798 26.1073L1.49342 23.277C1.49567 23.0175 1.60595 22.7636 1.79588 22.5804C1.97437 22.4082 2.19992 22.3158 2.43819 22.3229C2.93391 22.336 3.3351 22.7505 3.33236 23.2469C3.33109 23.4716 3.43295 23.6847 3.60879 23.8248C3.78463 23.965 4.01517 24.0169 4.23378 23.9654L8.10237 23.0583C8.51217 22.9622 8.8253 22.6167 8.88176 22.1985C9.1672 20.0817 9.85402 18.0693 10.9231 16.2172C11.1387 15.8432 11.0963 15.3713 10.8169 15.0429L8.97208 12.8763C8.82785 12.707 8.6158 12.6119 8.39211 12.6185C8.16969 12.6249 7.96215 12.7319 7.82789 12.9093L7.668 13.1206C7.54852 13.2786 7.37435 13.3779 7.17747 13.4005C6.98127 13.423 6.78841 13.3653 6.63546 13.2379C6.34641 12.997 6.30746 12.5416 6.54867 12.2227L7.7775 10.598C8.01606 10.2826 8.46677 10.22 8.78215 10.4587C9.07747 10.682 9.15311 11.1015 8.95447 11.4137C8.8392 11.595 8.80916 11.8176 8.87227 12.023C8.93538 12.2284 9.08529 12.3958 9.28237 12.4811L11.8621 13.5968C12.262 13.7699 12.7288 13.6695 13.0238 13.3466C14.1982 12.0601 15.5595 10.9736 17.0703 10.1172C17.4363 9.90951 17.6403 9.4911 17.5781 9.07562L16.9838 5.1216C16.9508 4.90153 16.8195 4.70837 16.6273 4.59643C16.4348 4.48439 16.2019 4.46579 15.9945 4.54564L15.4316 4.76219C15.2287 4.84008 15.0087 4.83196 14.8121 4.739C14.6156 4.64614 14.4696 4.48067 14.4008 4.27312C14.2708 3.88093 14.4975 3.43404 14.9064 3.27679L17.7809 2.17116C17.9839 2.09307 18.2039 2.10139 18.4004 2.19435C18.5969 2.28721 18.743 2.45268 18.8118 2.66022C18.9418 3.05241 18.715 3.49931 18.3061 3.65665L18.2284 3.6866C18.0182 3.76752 17.8568 3.94042 17.7905 4.1557C17.7244 4.37097 17.7606 4.60474 17.8891 4.78978L20.152 8.05198C20.3913 8.39701 20.8269 8.5617 21.2358 8.46159C22.5112 8.14925 23.8305 7.99083 25.1585 7.99083H25.1589C25.5919 7.99083 25.9801 7.71791 26.1248 7.31212L26.8741 5.21554C26.9413 5.02747 26.929 4.82002 26.8398 4.64134C26.7508 4.46256 26.5927 4.32772 26.402 4.26813C25.8564 4.09748 25.5093 3.56164 25.5766 2.99409C25.6126 2.69212 25.7712 2.41726 26.0232 2.22008C26.2879 2.01303 26.6266 1.91782 26.9529 1.95901L27.982 2.08857C28.6489 2.17253 29.1347 2.76248 29.065 3.40361C29.0111 3.89854 28.6646 4.29993 28.1823 4.42616C27.829 4.51863 27.5974 4.85681 27.639 5.21965L27.8994 7.49158C27.949 7.92517 28.2693 8.27959 28.6969 8.37362C30.3361 8.73372 31.9069 9.34402 33.3652 10.1873C33.7305 10.3987 34.1953 10.3623 34.522 10.0971L37.6268 7.57691C37.7996 7.43669 37.8993 7.22562 37.8981 7.0031C37.8968 6.78069 37.7948 6.57069 37.6206 6.43233L37.1483 6.05726C36.978 5.92213 36.8733 5.72838 36.8535 5.51164C36.8339 5.29529 36.9022 5.08549 37.0461 4.92081C37.3178 4.60954 37.818 4.57803 38.1612 4.85035L40.5733 6.76542C40.7436 6.90055 40.8483 7.0943 40.868 7.31095C40.8877 7.5273 40.8194 7.73709 40.6755 7.90188C40.4036 8.21295 39.9032 8.24446 39.5605 7.97243L39.4955 7.92076C39.3189 7.78054 39.0878 7.72927 38.8689 7.78152C38.6497 7.83377 38.4667 7.98378 38.3725 8.18839L36.7095 11.7984C36.5337 12.1802 36.6134 12.6393 36.9077 12.9408C37.012 13.0476 37.115 13.1582 37.2376 13.2914C37.5121 13.5896 37.9764 13.6088 38.2746 13.3342C38.5728 13.0597 38.592 12.5955 38.3175 12.2972C38.2656 12.2407 38.2168 12.1879 38.1695 12.1373L39.3772 9.51546C40.2222 9.7918 41.1729 9.5637 41.7809 8.86768C42.1913 8.39789 42.3862 7.79776 42.3296 7.17787C42.274 6.56668 41.9664 5.99748 41.4859 5.61605L39.0738 3.70108C38.1101 2.93597 36.7339 3.04742 35.9407 3.9554C35.5303 4.42518 35.3354 5.02531 35.3919 5.64521C35.4383 6.15384 35.659 6.63352 36.0089 6.99997L33.834 8.76572C32.4132 7.97615 30.898 7.38698 29.3222 7.01113L29.161 5.60333C29.9069 5.19078 30.4301 4.43106 30.5247 3.56262C30.6806 2.13025 29.6223 0.815805 28.1658 0.632331L27.1368 0.502775C26.4258 0.413338 25.6902 0.617849 25.1197 1.06396C24.5572 1.5038 24.202 2.12781 24.1197 2.82109C23.9999 3.82897 24.4649 4.79203 25.2725 5.33668L24.8475 6.52568C23.6109 6.54682 22.3818 6.69448 21.1851 6.96563L19.5428 4.59799C20.2096 4.01049 20.4961 3.07551 20.2053 2.19836C20.0089 1.60626 19.5909 1.13363 19.0283 0.867471C18.4734 0.605129 17.827 0.580959 17.2543 0.801225L14.3799 1.90676C13.2312 2.34847 12.6285 3.5908 13.0079 4.73499C13.2042 5.32709 13.6221 5.79972 14.1849 6.06587C14.6465 6.28418 15.1715 6.33771 15.6653 6.22234L16.0817 8.99332C14.6326 9.84767 13.3144 10.8992 12.156 12.1245L10.4991 11.4079C10.6337 10.6234 10.334 9.7918 9.66781 9.28786C9.20233 8.93578 8.62784 8.78578 8.04953 8.86631C7.47142 8.94645 6.95916 9.24705 6.60718 9.71254L5.37826 11.3373C4.65914 12.2878 4.79878 13.618 5.69608 14.3655C6.16039 14.7523 6.74584 14.9276 7.34509 14.8587C7.7229 14.8153 8.08182 14.6726 8.38536 14.4511L9.49706 15.757C8.4698 17.61 7.78905 19.6062 7.47063 21.6989L4.63086 22.3647C4.28613 21.5044 3.45203 20.8813 2.47703 20.8556C1.84226 20.8396 1.24077 21.0763 0.776555 21.5242C0.305298 21.979 0.0315074 22.613 0.0255384 23.2637L9.67687e-05 26.0942C-0.00557867 26.7319 0.238563 27.3326 0.687412 27.7856C1.13626 28.2385 1.73482 28.4879 2.37262 28.4879C3.53217 28.488 4.50825 27.6548 4.72842 26.5556V26.5556Z" fill="white"/>
<path d="M21.5237 22.5494C21.8818 22.3597 22.0183 21.9154 21.8284 21.5573C21.6387 21.1994 21.1946 21.0626 20.8362 21.2526C19.0824 22.1822 17.0834 21.9365 16.0836 20.6679C15.5226 19.9563 15.3297 19.0133 15.5402 18.0128C15.761 16.9636 16.3923 15.984 17.3179 15.2545C18.2433 14.525 19.3434 14.1404 20.415 14.1701C21.437 14.199 22.3088 14.6069 22.8699 15.3185C23.7122 16.3872 23.7015 17.9823 22.8426 19.3822C22.6306 19.7278 22.7388 20.1796 23.0844 20.3916C23.4298 20.6035 23.8817 20.4953 24.0936 20.1499C25.2778 18.2199 25.2498 15.9668 24.0225 14.4099C23.1875 13.3505 21.921 12.7443 20.4564 12.703C19.0411 12.6619 17.6042 13.1598 16.4093 14.1018C15.2141 15.0439 14.3955 16.3255 14.1039 17.7105C13.8021 19.1443 14.0958 20.5173 14.9308 21.5766C15.81 22.6919 17.1867 23.2786 18.6678 23.2785C19.6114 23.2785 20.5973 23.0406 21.5237 22.5494V22.5494Z" fill="white"/>
<path d="M35.7639 15.9678C35.7639 14.4463 34.348 13.2085 32.6076 13.2085C30.8672 13.2085 29.4512 14.4463 29.4512 15.9678C29.4512 17.4893 30.8672 18.7272 32.6076 18.7272C34.348 18.7272 35.7639 17.4893 35.7639 15.9678ZM30.9191 15.9678C30.9191 15.2557 31.6765 14.6763 32.6077 14.6763C33.5388 14.6763 34.2962 15.2557 34.2962 15.9678C34.2962 16.68 33.5388 17.2594 32.6077 17.2594C31.6765 17.2594 30.9191 16.68 30.9191 15.9678Z" fill="white"/>
<path d="M27.2473 28.5809C27.2473 26.7162 25.7303 25.1992 23.8657 25.1992C22.0009 25.1992 20.4839 26.7162 20.4839 28.5809C20.4839 30.4456 22.0009 31.9626 23.8657 31.9626C25.7303 31.9626 27.2473 30.4456 27.2473 28.5809ZM21.9518 28.5809C21.9518 27.5256 22.8103 26.667 23.8658 26.667C24.921 26.667 25.7796 27.5256 25.7796 28.5809C25.7796 29.6362 24.9211 30.4948 23.8658 30.4948C22.8103 30.4948 21.9518 29.6362 21.9518 28.5809V28.5809Z" fill="white"/>
<path d="M36.8149 27.2016C36.8149 25.7515 35.6352 24.5718 34.1851 24.5718C32.7351 24.5718 31.5554 25.7515 31.5554 27.2016C31.5554 28.6516 32.7351 29.8313 34.1851 29.8313C35.6352 29.8312 36.8149 28.6516 36.8149 27.2016ZM33.0231 27.2016C33.0231 26.5608 33.5444 26.0396 34.185 26.0396C34.8257 26.0396 35.347 26.5608 35.347 27.2016C35.347 27.8423 34.8257 28.3636 34.185 28.3636C33.5445 28.3635 33.0231 27.8423 33.0231 27.2016Z" fill="white"/>
<path d="M27.1838 39.0303C28.6047 39.0303 29.7609 37.8743 29.7609 36.4533C29.7609 35.0323 28.6048 33.8762 27.1838 33.8762C25.7628 33.8762 24.6067 35.0322 24.6067 36.4533C24.6067 37.8743 25.7627 39.0303 27.1838 39.0303ZM27.1838 35.344C27.7955 35.344 28.2931 35.8416 28.2931 36.4533C28.2931 37.0649 27.7955 37.5625 27.1838 37.5625C26.5721 37.5625 26.0745 37.0649 26.0745 36.4533C26.0745 35.8416 26.5721 35.344 27.1838 35.344Z" fill="white"/>
<path d="M15.6508 34.6983C17.1142 34.6983 18.3047 33.5077 18.3047 32.0443C18.3047 30.581 17.1142 29.3904 15.6508 29.3904C14.1874 29.3904 12.9968 30.581 12.9968 32.0443C12.9968 33.5077 14.1874 34.6983 15.6508 34.6983ZM15.6508 30.8582C16.3049 30.8582 16.8369 31.3903 16.8369 32.0443C16.8369 32.6984 16.3048 33.2305 15.6508 33.2305C14.9967 33.2305 14.4646 32.6984 14.4646 32.0443C14.4646 31.3903 14.9967 30.8582 15.6508 30.8582Z" fill="white"/>
<path d="M30.5951 22.8596C30.5951 22.4543 30.2666 22.1257 29.8612 22.1257H29.2124C28.807 22.1257 28.4785 22.4543 28.4785 22.8596C28.4785 23.2649 28.807 23.5935 29.2124 23.5935H29.8612C30.2666 23.5935 30.5951 23.2649 30.5951 22.8596Z" fill="white"/>
<path d="M20.5515 36.4219H21.2181C21.6235 36.4219 21.952 36.0933 21.952 35.688C21.952 35.2827 21.6235 34.9541 21.2181 34.9541H20.5515C20.1461 34.9541 19.8176 35.2827 19.8176 35.688C19.8176 36.0933 20.1462 36.4219 20.5515 36.4219Z" fill="white"/>
<path d="M14.3728 25.7344C14.7782 25.7344 15.1067 25.4058 15.1067 25.0005C15.1067 24.5952 14.7782 24.2666 14.3728 24.2666H13.7307C13.3253 24.2666 12.9968 24.5952 12.9968 25.0005C12.9968 25.4058 13.3253 25.7344 13.7307 25.7344H14.3728Z" fill="white"/>
<path d="M27.4073 12.8945C27.8127 12.8945 28.1412 12.566 28.1412 12.1607C28.1412 11.7553 27.8127 11.4268 27.4073 11.4268H26.5137C26.1083 11.4268 25.7798 11.7553 25.7798 12.1607C25.7798 12.566 26.1083 12.8945 26.5137 12.8945H27.4073Z" fill="white"/>
<path d="M32.2893 32.5649C31.8839 32.5649 31.5554 32.8935 31.5554 33.2988C31.5554 33.7041 31.8839 34.0327 32.2893 34.0327H33.2761C33.6815 34.0327 34.01 33.7041 34.01 33.2988C34.01 32.8935 33.6815 32.5649 33.2761 32.5649H32.2893Z" fill="white"/>
</g>
<defs>
<clipPath id="clip0">
<rect width="50" height="50" fill="white"/>
</clipPath>
</defs>
</svg>
