<svg id="Capa_1" enable-background="new 0 0 496.994 496.994" height="30" viewBox="0 0 496.994 496.994" width="30" xmlns="http://www.w3.org/2000/svg"><g><path d="m350.716 1.72c-11.484-4.757-24.641.693-29.398 12.177-.463 1.118-.826 2.256-1.104 3.396l-5.633 23.319 34.184 14.159 12.506-20.472c.61-1.003 1.158-2.064 1.621-3.182 4.757-11.484-.693-24.641-12.176-29.397z" fill="#ff4c50"/><path d="m350.114 37.926c1.809 4.44 1.925 9.543-.012 14.218-.371.896-.811 1.775-1.338 2.628l-12.084 19.792-19.515 8.152-8.035-19.564 5.451-22.54c.231-.976.541-1.908.913-2.804 3.877-9.359 14.752-14.109 24.453-10.09 4.85 2.009 8.355 5.777 10.167 10.208z" fill="#ff764c"/><path d="m146.278 1.72c-11.484 4.757-16.934 17.914-12.177 29.398.463 1.118 1.011 2.179 1.621 3.182l12.506 20.472 34.184-14.159-5.633-23.319c-.278-1.141-.641-2.278-1.104-3.396-4.756-11.485-17.913-16.935-29.397-12.178z" fill="#ff4c50"/><path d="m171.455 27.746c4.418 1.861 8.109 5.387 10.045 10.062.371.896.682 1.828.913 2.804l5.451 22.54-8.035 19.564-19.515-8.152-12.084-19.792c-.527-.853-.966-1.732-1.338-2.628-3.877-9.359.455-20.408 10.156-24.426 4.85-2.009 9.992-1.823 14.407.028z" fill="#ff764c"/><path d="m1.72 146.279c-4.757 11.484.693 24.641 12.177 29.398 1.118.463 2.256.826 3.396 1.104l23.319 5.633 14.159-34.184-20.472-12.506c-1.003-.61-2.064-1.158-3.182-1.621-11.484-4.758-24.641.692-29.397 12.176z" fill="#ff4c50"/><path d="m37.926 146.88c4.44-1.809 9.543-1.925 14.218.012.896.371 1.775.811 2.628 1.338l19.792 12.084 8.152 19.515-19.564 8.035-22.54-5.451c-.976-.231-1.908-.541-2.804-.913-9.359-3.877-14.109-14.752-10.09-24.453 2.009-4.85 5.777-8.355 10.208-10.167z" fill="#ff764c"/><path d="m1.72 350.716c4.757 11.484 17.914 16.934 29.398 12.177 1.118-.463 2.179-1.011 3.182-1.621l20.472-12.506-14.159-34.184-23.319 5.633c-1.141.278-2.278.641-3.396 1.104-11.485 4.756-16.935 17.913-12.178 29.397z" fill="#ff4c50"/><path d="m27.746 325.539c1.861-4.418 5.387-8.109 10.062-10.045.896-.371 1.828-.682 2.804-.913l22.54-5.451 19.564 8.035-8.152 19.515-19.792 12.084c-.853.527-1.732.966-2.628 1.338-9.359 3.877-20.408-.455-24.426-10.156-2.009-4.849-1.823-9.992.028-14.407z" fill="#ff764c"/><path d="m146.279 495.275c11.484 4.757 24.641-.693 29.398-12.177.463-1.118.826-2.256 1.104-3.396l5.633-23.319-34.184-14.159-12.506 20.472c-.61 1.003-1.158 2.064-1.621 3.182-4.758 11.483.692 24.64 12.176 29.397z" fill="#ff4c50"/><path d="m146.88 459.069c-1.809-4.44-1.925-9.543.012-14.218.371-.896.811-1.775 1.338-2.628l12.084-19.792 19.515-8.152 8.035 19.564-5.451 22.54c-.231.976-.541 1.908-.913 2.804-3.877 9.359-14.752 14.109-24.453 10.09-4.85-2.01-8.355-5.778-10.167-10.208z" fill="#ff764c"/><path d="m350.716 495.274c11.484-4.757 16.934-17.914 12.177-29.398-.463-1.118-1.011-2.179-1.621-3.182l-12.506-20.472-34.184 14.159 5.633 23.319c.278 1.141.641 2.278 1.104 3.396 4.756 11.485 17.913 16.935 29.397 12.178z" fill="#ff4c50"/><path d="m325.539 469.248c-4.418-1.861-8.109-5.387-10.045-10.062-.371-.896-.682-1.828-.913-2.804l-5.451-22.54 8.035-19.564 19.515 8.152 12.084 19.792c.527.853.966 1.732 1.338 2.628 3.877 9.359-.455 20.408-10.156 24.426-4.849 2.01-9.992 1.823-14.407-.028z" fill="#ff764c"/><path d="m495.275 350.716c4.757-11.484-.693-24.641-12.177-29.398-1.118-.463-2.256-.826-3.396-1.104l-23.319-5.633-14.159 34.184 20.472 12.506c1.003.61 2.064 1.158 3.182 1.621 11.483 4.757 24.64-.693 29.397-12.176z" fill="#ff4c50"/><path d="m459.069 350.114c-4.44 1.809-9.543 1.925-14.218-.012-.896-.371-1.775-.811-2.628-1.338l-19.792-12.084-8.152-19.515 19.564-8.035 22.54 5.451c.976.231 1.908.541 2.804.913 9.359 3.877 14.109 14.752 10.09 24.453-2.01 4.85-5.778 8.355-10.208 10.167z" fill="#ff764c"/><path d="m495.274 146.278c-4.757-11.484-17.914-16.934-29.398-12.177-1.118.463-2.179 1.011-3.182 1.621l-20.472 12.506 14.159 34.184 23.319-5.633c1.141-.278 2.278-.641 3.396-1.104 11.485-4.756 16.935-17.913 12.178-29.397z" fill="#ff4c50"/><path d="m469.248 171.455c-1.861 4.418-5.387 8.109-10.062 10.045-.896.371-1.828.682-2.804.913l-22.54 5.451-19.564-8.035 8.152-19.515 19.792-12.084c.853-.527 1.732-.966 2.628-1.338 9.359-3.877 20.408.455 24.426 10.156 2.01 4.85 1.823 9.992-.028 14.407z" fill="#ff764c"/><g fill="#ff4c50"><path d="m196.65 121.756h30v75.573h-30z" transform="matrix(.924 -.383 .383 .924 -44.943 93.14)"/><path d="m144.542 173.864h30v75.573h-30z" transform="matrix(.383 -.924 .924 .383 -97.052 278.053)"/><path d="m121.755 270.344h75.573v30h-75.573z" transform="matrix(.924 -.383 .383 .924 -97.052 82.774)"/><path d="m173.864 322.452h75.573v30h-75.573z" transform="matrix(.383 -.924 .924 .383 -181.11 403.855)"/><path d="m270.343 299.666h30v75.573h-30z" transform="matrix(.924 -.383 .383 .924 -107.417 134.883)"/><path d="m322.452 247.557h30v75.573h-30z" transform="matrix(.383 -.924 .924 .383 -55.308 487.913)"/><path d="m299.666 196.651h75.573v30h-75.573z" transform="matrix(.924 -.383 .383 .924 -55.308 145.248)"/><path d="m247.557 144.542h75.573v30h-75.573z" transform="matrix(.383 -.924 .924 .383 28.75 362.111)"/></g><circle cx="248.497" cy="248.497" fill="#ffd17e" r="75"/><path d="m248.497 203.497v90c24.853 0 45-20.147 45-45s-20.147-45-45-45z" fill="#ff764c"/><path d="m263.497 248.497c0-24.853-6.716-45-15-45-24.853 0-45 20.147-45 45s20.147 45 45 45c8.284 0 15-20.147 15-45z" fill="#ff9a42"/><path d="m248.497 53.497c-107.696 0-195 87.304-195 195s87.304 195 195 195 195-87.305 195-195-87.304-195-195-195zm0 330c-74.559 0-135-60.442-135-135s60.441-135 135-135 135 60.442 135 135-60.441 135-135 135z" fill="#ff9a42"/><path d="m248.497 98.497c-82.843 0-150 67.157-150 150s67.157 150 150 150 150-67.157 150-150-67.157-150-150-150zm0 270c-66.274 0-120-53.726-120-120s53.726-120 120-120 120 53.726 120 120-53.726 120-120 120z" fill="#ffd17e"/></g></svg>