<svg width="50" height="48" viewBox="0 0 50 48" fill="none" xmlns="http://www.w3.org/2000/svg">
<path d="M25.2194 18.355H21.1582V20.939H18.5039V24.9316H21.1582V27.5156H25.2194V24.9316H27.8737V20.939H25.2194V18.355ZM26.4023 22.4105V23.4601H23.748V26.0442H22.6297V23.4601H19.9755V22.4105H22.6297V19.8264H23.748V22.4105H26.4023Z" fill="white"/>
<path d="M10.5258 4.89962H11.9973V3.18548H13.7114V1.71404H11.9973V0H10.5258V1.71404H8.81177V3.18548H10.5258V4.89962Z" fill="white"/>
<path d="M3.18558 11.0664H1.71414V12.7804H0V14.2519H1.71414V15.966H3.18558V14.2519H4.89962V12.7804H3.18558V11.0664Z" fill="white"/>
<path d="M3.15527 4.16382H4.62672V5.63526H3.15527V4.16382Z" fill="white"/>
<path d="M49.5456 30.6089C48.8454 29.5439 47.4692 29.0718 46.2629 29.4922C45.0317 29.9213 44.2405 31.1737 44.3859 32.4707L42.8901 33.1704C42.347 32.3467 41.5914 31.6634 40.6829 31.2099L41.0856 30.3936C42.2371 30.5133 43.3634 29.7875 43.6869 28.668C44.0021 27.5778 43.4665 26.4042 42.4616 25.8921C41.4465 25.3747 40.1657 25.6382 39.4441 26.5209C38.6407 27.5036 38.7743 28.9757 39.7338 29.8079L39.2805 30.7267C38.8548 30.6397 38.4304 30.6044 38.0132 30.6138L38.2422 30.454V10.5192L23.1888 5.13989L8.13525 10.5192V30.454L23.1887 40.9631L32.85 34.2185C32.4327 35.2812 32.3431 36.4576 32.5999 37.5705L31.5231 37.9973C30.7046 37.0426 29.2404 36.8727 28.2227 37.6058C27.2897 38.2778 26.9558 39.5523 27.4727 40.586C27.9903 41.6213 29.2131 42.1462 30.3244 41.8363C31.4104 41.5334 32.1736 40.4875 32.0878 39.3563L33.1122 38.9504C33.588 39.8518 34.3027 40.6213 35.1899 41.1615L34.5731 42.5881C33.423 42.4351 32.2716 43.077 31.7989 44.137C31.2267 45.4202 31.7874 46.9755 33.0472 47.5965C34.1675 48.1486 35.5544 47.8302 36.322 46.8467C37.1918 45.7323 37.0094 44.0796 35.9222 43.1756L36.5362 41.7555C37.7446 42.1105 39.0506 42.0592 40.2232 41.5959L40.7666 42.6018C40.0082 43.3796 39.8894 44.6007 40.452 45.5246C41.0917 46.5752 42.4711 47.0103 43.5876 46.4777C44.6251 45.9828 45.1461 44.7806 44.8357 43.6818C44.5009 42.4966 43.2896 41.7225 42.0723 41.9227L41.5113 40.8843C43.4826 39.4396 44.3159 36.813 43.5345 34.4938L44.9299 33.8409C45.838 35.0588 47.6079 35.327 48.8396 34.4406C50.0468 33.5717 50.3636 31.8531 49.5456 30.6089V30.6089ZM41.3437 26.9884C42.7272 26.9884 42.7082 29.043 41.3437 29.043C39.9806 29.043 39.958 26.9884 41.3437 26.9884ZM29.66 40.5624C28.2766 40.5624 28.2955 38.5078 29.66 38.5078C31.0233 38.5078 31.0459 40.5624 29.66 40.5624ZM35.3854 45.4585C35.1811 46.4432 33.8622 46.7249 33.2697 45.9136C32.6422 45.0544 33.4296 43.8458 34.4653 44.0604C35.0965 44.1912 35.5168 44.8251 35.3854 45.4585ZM32.2687 25.0418C31.5018 25.787 31.2232 26.9484 31.5689 27.9599L23.1887 33.8101L13.9802 27.3816V14.9211L23.1887 11.7809L32.3972 14.9211V24.9222C32.3545 24.962 32.3116 25.002 32.2687 25.0418V25.0418ZM33.1164 27.7977C32.9195 27.5008 32.8477 27.1306 32.92 26.7817C33.171 25.5705 34.8908 25.3366 35.449 26.4592C36.1766 27.9223 34.02 29.1608 33.1164 27.7977V27.7977ZM35.8699 29.3556C36.2584 29.0815 36.5655 28.7211 36.7709 28.3035V29.6867L36.168 30.1076L35.8699 29.3556ZM23.1888 39.1685L9.6067 29.6867V11.5559L23.1887 6.70237L36.7708 11.5559V25.8157C36.2412 24.7408 35.0594 24.1038 33.8686 24.2628V13.8682L23.1886 10.2264L12.5089 13.8682V28.1491L23.1888 35.6048L32.3899 29.1813C32.9626 29.6807 33.7318 29.9281 34.4882 29.8628L34.9281 30.9732L23.1888 39.1685ZM42.4701 43.2538C43.8359 43.2538 43.9122 45.3971 42.5124 45.3443C41.2115 45.2953 41.1062 43.2538 42.4701 43.2538ZM42.2725 37.1562C41.8802 39.048 40.1892 40.4706 38.2527 40.5174C36.5122 40.5594 34.8925 39.4956 34.2362 37.8847C33.5954 36.3115 33.9861 34.4558 35.207 33.2744C36.4664 32.0559 38.4003 31.7383 39.9808 32.5036C41.6983 33.3353 42.6598 35.2881 42.2725 37.1562ZM48.5095 32.4292C48.2765 33.5532 46.7667 33.8704 46.0962 32.9418C45.3908 31.9648 46.282 30.5929 47.462 30.8373C48.1791 30.9859 48.6585 31.7106 48.5095 32.4292V32.4292Z" fill="white"/>
<path d="M35.8293 34.5525H37.3008V36.0239H35.8293V34.5525Z" fill="white"/>
<path d="M16.9089 15.9915V17.4629H15.4375V15.9915H16.9089ZM16.9089 18.9343V20.4058H15.4375V18.9343H16.9089Z" fill="white"/>
</svg>
