<svg width="268" height="27" viewBox="0 0 268 27" fill="none" xmlns="http://www.w3.org/2000/svg">
<path d="M4.37079 21H0.269226V1.09375H4.37079V21ZM13.5906 6.20703L13.7136 7.86133C14.7618 6.57617 16.1791 5.93359 17.9656 5.93359C19.8705 5.93359 21.1784 6.68555 21.8894 8.18945C22.9284 6.68555 24.4096 5.93359 26.3327 5.93359C27.9369 5.93359 29.1309 6.40299 29.9148 7.3418C30.6986 8.27148 31.0906 9.67513 31.0906 11.5527V21H27.1257V11.5664C27.1257 10.7279 26.9616 10.1172 26.6335 9.73438C26.3054 9.34245 25.7266 9.14648 24.8972 9.14648C23.7123 9.14648 22.892 9.71159 22.4363 10.8418L22.4499 21H18.4988V11.5801C18.4988 10.7233 18.3301 10.1035 17.9929 9.7207C17.6557 9.33789 17.0814 9.14648 16.2702 9.14648C15.1491 9.14648 14.338 9.61133 13.8366 10.541V21H9.88548V6.20703H13.5906ZM39.8045 6.20703L39.9275 7.86133C40.9757 6.57617 42.393 5.93359 44.1795 5.93359C46.0844 5.93359 47.3923 6.68555 48.1033 8.18945C49.1423 6.68555 50.6235 5.93359 52.5466 5.93359C54.1508 5.93359 55.3448 6.40299 56.1287 7.3418C56.9125 8.27148 57.3045 9.67513 57.3045 11.5527V21H53.3396V11.5664C53.3396 10.7279 53.1756 10.1172 52.8474 9.73438C52.5193 9.34245 51.9405 9.14648 51.1111 9.14648C49.9262 9.14648 49.1059 9.71159 48.6502 10.8418L48.6638 21H44.7127V11.5801C44.7127 10.7233 44.544 10.1035 44.2068 9.7207C43.8696 9.33789 43.2953 9.14648 42.4841 9.14648C41.3631 9.14648 40.5519 9.61133 40.0506 10.541V21H36.0994V6.20703H39.8045ZM71.1727 19.4961C70.1974 20.681 68.8484 21.2734 67.1258 21.2734C65.5399 21.2734 64.3276 20.8177 63.4891 19.9062C62.6596 18.9948 62.2358 17.6595 62.2176 15.9004V6.20703H66.1688V15.7637C66.1688 17.304 66.8706 18.0742 68.2742 18.0742C69.6141 18.0742 70.5346 17.6094 71.0359 16.6797V6.20703H75.0008V21H71.282L71.1727 19.4961ZM83.578 6.20703L83.701 7.91602C84.7583 6.5944 86.1756 5.93359 87.953 5.93359C89.5207 5.93359 90.6873 6.39388 91.453 7.31445C92.2186 8.23503 92.6105 9.61133 92.6288 11.4434V21H88.6776V11.5391C88.6776 10.7005 88.4953 10.0944 88.1307 9.7207C87.7661 9.33789 87.16 9.14648 86.3123 9.14648C85.2004 9.14648 84.3664 9.62044 83.8104 10.5684V21H79.8592V6.20703H83.578ZM101.766 21H97.8017V6.20703H101.766V21ZM97.5692 2.37891C97.5692 1.78646 97.7652 1.29883 98.1571 0.916016C98.5582 0.533203 99.1005 0.341797 99.7841 0.341797C100.459 0.341797 100.996 0.533203 101.397 0.916016C101.798 1.29883 101.999 1.78646 101.999 2.37891C101.999 2.98047 101.794 3.47266 101.384 3.85547C100.983 4.23828 100.449 4.42969 99.7841 4.42969C99.1187 4.42969 98.5809 4.23828 98.1708 3.85547C97.7697 3.47266 97.5692 2.98047 97.5692 2.37891ZM111.725 2.57031V6.20703H114.254V9.10547H111.725V16.4883C111.725 17.0352 111.829 17.4271 112.039 17.6641C112.249 17.901 112.65 18.0195 113.242 18.0195C113.68 18.0195 114.067 17.9876 114.404 17.9238V20.918C113.629 21.1549 112.832 21.2734 112.012 21.2734C109.241 21.2734 107.828 19.8743 107.773 17.0762V9.10547H105.613V6.20703H107.773V2.57031H111.725ZM123.938 15.4082L126.673 6.20703H130.911L124.964 23.2969L124.636 24.0762C123.752 26.0085 122.293 26.9746 120.261 26.9746C119.686 26.9746 119.103 26.888 118.511 26.7148V23.7207L119.112 23.7344C119.86 23.7344 120.416 23.6204 120.78 23.3926C121.154 23.1647 121.446 22.7865 121.655 22.2578L122.12 21.041L116.938 6.20703H121.19L123.938 15.4082ZM143.622 21V1.09375H150.595C153.01 1.09375 154.842 1.55859 156.091 2.48828C157.34 3.40885 157.964 4.76237 157.964 6.54883C157.964 7.52409 157.713 8.38542 157.212 9.13281C156.711 9.87109 156.013 10.4134 155.12 10.7598C156.141 11.015 156.943 11.5299 157.526 12.3047C158.119 13.0794 158.415 14.0273 158.415 15.1484C158.415 17.0625 157.804 18.5117 156.583 19.4961C155.362 20.4805 153.621 20.9818 151.36 21H143.622ZM147.724 12.332V17.7051H151.237C152.203 17.7051 152.955 17.4772 153.493 17.0215C154.04 16.5566 154.314 15.9186 154.314 15.1074C154.314 13.2845 153.37 12.3594 151.483 12.332H147.724ZM147.724 9.43359H150.759C152.828 9.39714 153.862 8.57227 153.862 6.95898C153.862 6.05664 153.598 5.40951 153.069 5.01758C152.55 4.61654 151.725 4.41602 150.595 4.41602H147.724V9.43359ZM162.59 13.4668C162.59 11.9993 162.872 10.6914 163.438 9.54297C164.003 8.39453 164.814 7.50586 165.871 6.87695C166.938 6.24805 168.173 5.93359 169.576 5.93359C171.572 5.93359 173.199 6.54427 174.457 7.76562C175.724 8.98698 176.43 10.6458 176.576 12.7422L176.604 13.7539C176.604 16.0234 175.97 17.8464 174.703 19.2227C173.436 20.5898 171.736 21.2734 169.604 21.2734C167.471 21.2734 165.766 20.5898 164.49 19.2227C163.223 17.8555 162.59 15.9961 162.59 13.6445V13.4668ZM166.541 13.7539C166.541 15.1576 166.805 16.2331 167.334 16.9805C167.863 17.7188 168.619 18.0879 169.604 18.0879C170.561 18.0879 171.308 17.7233 171.846 16.9941C172.384 16.2559 172.652 15.0801 172.652 13.4668C172.652 12.0905 172.384 11.0241 171.846 10.2676C171.308 9.51107 170.552 9.13281 169.576 9.13281C168.61 9.13281 167.863 9.51107 167.334 10.2676C166.805 11.015 166.541 12.1771 166.541 13.7539ZM180.382 13.4668C180.382 11.9993 180.665 10.6914 181.23 9.54297C181.795 8.39453 182.606 7.50586 183.663 6.87695C184.73 6.24805 185.965 5.93359 187.368 5.93359C189.364 5.93359 190.991 6.54427 192.249 7.76562C193.516 8.98698 194.222 10.6458 194.368 12.7422L194.396 13.7539C194.396 16.0234 193.762 17.8464 192.495 19.2227C191.228 20.5898 189.528 21.2734 187.396 21.2734C185.263 21.2734 183.558 20.5898 182.282 19.2227C181.015 17.8555 180.382 15.9961 180.382 13.6445V13.4668ZM184.333 13.7539C184.333 15.1576 184.597 16.2331 185.126 16.9805C185.655 17.7188 186.411 18.0879 187.396 18.0879C188.353 18.0879 189.1 17.7233 189.638 16.9941C190.176 16.2559 190.444 15.0801 190.444 13.4668C190.444 12.0905 190.176 11.0241 189.638 10.2676C189.1 9.51107 188.344 9.13281 187.368 9.13281C186.402 9.13281 185.655 9.51107 185.126 10.2676C184.597 11.015 184.333 12.1771 184.333 13.7539ZM206.801 16.9121C206.801 16.429 206.559 16.0508 206.076 15.7773C205.602 15.4948 204.837 15.2441 203.779 15.0254C200.261 14.2871 198.502 12.7923 198.502 10.541C198.502 9.22852 199.044 8.13477 200.129 7.25977C201.223 6.37565 202.649 5.93359 204.408 5.93359C206.286 5.93359 207.785 6.37565 208.906 7.25977C210.037 8.14388 210.602 9.29232 210.602 10.7051H206.651C206.651 10.14 206.468 9.67513 206.104 9.31055C205.739 8.93685 205.169 8.75 204.395 8.75C203.729 8.75 203.214 8.90039 202.85 9.20117C202.485 9.50195 202.303 9.88477 202.303 10.3496C202.303 10.7871 202.508 11.1426 202.918 11.416C203.337 11.6803 204.039 11.9128 205.024 12.1133C206.008 12.3047 206.837 12.5234 207.512 12.7695C209.599 13.5352 210.643 14.8613 210.643 16.748C210.643 18.097 210.064 19.1908 208.906 20.0293C207.749 20.8587 206.254 21.2734 204.422 21.2734C203.182 21.2734 202.08 21.0547 201.113 20.6172C200.156 20.1706 199.404 19.5645 198.858 18.7988C198.311 18.0241 198.037 17.1901 198.037 16.2969H201.783C201.82 16.9987 202.08 17.5365 202.563 17.9102C203.046 18.2839 203.693 18.4707 204.504 18.4707C205.261 18.4707 205.83 18.3294 206.213 18.0469C206.605 17.7552 206.801 17.377 206.801 16.9121ZM219.89 2.57031V6.20703H222.419V9.10547H219.89V16.4883C219.89 17.0352 219.995 17.4271 220.204 17.6641C220.414 17.901 220.815 18.0195 221.407 18.0195C221.845 18.0195 222.232 17.9876 222.57 17.9238V20.918C221.795 21.1549 220.997 21.2734 220.177 21.2734C217.406 21.2734 215.993 19.8743 215.939 17.0762V9.10547H213.779V6.20703H215.939V2.57031H219.89ZM233.389 21.2734C231.22 21.2734 229.451 20.6081 228.084 19.2773C226.726 17.9466 226.047 16.1738 226.047 13.959V13.5762C226.047 12.0905 226.334 10.7643 226.908 9.59766C227.483 8.42188 228.294 7.51953 229.342 6.89062C230.399 6.2526 231.602 5.93359 232.951 5.93359C234.975 5.93359 236.565 6.57161 237.723 7.84766C238.89 9.1237 239.473 10.9329 239.473 13.2754V14.8887H230.053C230.181 15.8548 230.563 16.6296 231.201 17.2129C231.849 17.7962 232.664 18.0879 233.649 18.0879C235.171 18.0879 236.36 17.5365 237.217 16.4336L239.158 18.6074C238.566 19.446 237.764 20.1022 236.752 20.5762C235.74 21.041 234.619 21.2734 233.389 21.2734ZM232.938 9.13281C232.154 9.13281 231.516 9.39714 231.024 9.92578C230.541 10.4544 230.231 11.2109 230.094 12.1953H235.59V11.8809C235.572 11.0059 235.335 10.3314 234.879 9.85742C234.423 9.37435 233.776 9.13281 232.938 9.13281ZM252.001 9.91211C251.463 9.83919 250.99 9.80273 250.579 9.80273C249.085 9.80273 248.105 10.3086 247.64 11.3203V21H243.689V6.20703H247.421L247.531 7.9707C248.324 6.61263 249.422 5.93359 250.825 5.93359C251.263 5.93359 251.673 5.99284 252.056 6.11133L252.001 9.91211ZM263.887 16.9121C263.887 16.429 263.645 16.0508 263.162 15.7773C262.688 15.4948 261.923 15.2441 260.866 15.0254C257.347 14.2871 255.588 12.7923 255.588 10.541C255.588 9.22852 256.131 8.13477 257.215 7.25977C258.309 6.37565 259.735 5.93359 261.494 5.93359C263.372 5.93359 264.871 6.37565 265.992 7.25977C267.123 8.14388 267.688 9.29232 267.688 10.7051H263.737C263.737 10.14 263.554 9.67513 263.19 9.31055C262.825 8.93685 262.256 8.75 261.481 8.75C260.815 8.75 260.3 8.90039 259.936 9.20117C259.571 9.50195 259.389 9.88477 259.389 10.3496C259.389 10.7871 259.594 11.1426 260.004 11.416C260.423 11.6803 261.125 11.9128 262.11 12.1133C263.094 12.3047 263.923 12.5234 264.598 12.7695C266.685 13.5352 267.729 14.8613 267.729 16.748C267.729 18.097 267.15 19.1908 265.992 20.0293C264.835 20.8587 263.34 21.2734 261.508 21.2734C260.269 21.2734 259.166 21.0547 258.2 20.6172C257.242 20.1706 256.491 19.5645 255.944 18.7988C255.397 18.0241 255.123 17.1901 255.123 16.2969H258.869C258.906 16.9987 259.166 17.5365 259.649 17.9102C260.132 18.2839 260.779 18.4707 261.59 18.4707C262.347 18.4707 262.916 18.3294 263.299 18.0469C263.691 17.7552 263.887 17.377 263.887 16.9121Z" fill="black"/>
</svg>
