<svg width="85" height="85" viewBox="0 0 85 85" fill="none" xmlns="http://www.w3.org/2000/svg">
<path d="M42.5 85C65.9721 85 85 65.9721 85 42.5C85 19.0279 65.9721 0 42.5 0C19.0279 0 0 19.0279 0 42.5C0 65.9721 19.0279 85 42.5 85Z" fill="#08475E"/>
<path d="M84.8798 45.7104C76.7811 37.6117 50.4668 11.2974 50.4668 11.2974L11.2974 50.4668L45.7104 84.8798C66.6229 83.3178 83.3179 66.6229 84.8798 45.7104Z" fill="#05303D"/>
<path d="M39.3878 39.2704L22.4102 22.2928L22.4623 21.7189L32.8838 11.2974C37.7392 6.44196 45.6114 6.44196 50.4668 11.2974C55.3223 16.1529 55.3223 24.025 50.4668 28.8805L40.0453 39.3019L39.3878 39.2704Z" fill="white"/>
<path d="M50.466 28.8803L40.0452 39.3011L39.3878 39.2706L30.9404 30.8232L50.466 11.2976C52.8937 13.7253 54.1074 16.9064 54.1074 20.0878C54.1076 23.2715 52.8937 26.4527 50.466 28.8803Z" fill="#D1FEFB"/>
<path d="M11.2974 50.4668C6.4419 45.6113 6.4419 37.7392 11.2974 32.8838L22.4622 21.7189L40.0453 39.3019L28.8804 50.4668C24.0249 55.3223 16.1528 55.3223 11.2974 50.4668Z" fill="#45F6FF"/>
<path d="M40.0451 39.3011L28.8801 50.4662C24.0248 55.3215 16.1527 55.3215 11.2974 50.4662L31.2538 30.5098L40.0451 39.3011Z" fill="#5ECBF1"/>
<path d="M45.6123 45.7298L62.5899 62.7073L62.5377 63.2813L52.1163 73.7027C47.2608 78.5582 39.3887 78.5582 34.5332 73.7027C29.6777 68.8473 29.6777 60.9751 34.5332 56.1197L44.9547 45.6982L45.6123 45.7298Z" fill="white"/>
<path d="M62.5377 63.2818L52.1169 73.7026C47.2616 78.5579 39.3895 78.5579 34.5342 73.7026L54.0598 54.177L62.5905 62.7077L62.5377 63.2818Z" fill="#D1FEFB"/>
<path d="M73.7025 34.5333C78.558 39.3888 78.558 47.2609 73.7025 52.1164L62.5376 63.2812L44.9546 45.6982L56.1195 34.5333C60.9749 29.6779 68.8471 29.6779 73.7025 34.5333Z" fill="#FF405C"/>
<path d="M73.7025 52.1167L62.5374 63.2818L53.7461 54.4904L73.7025 34.534C78.5578 39.3893 78.5578 47.2614 73.7025 52.1167Z" fill="#D01273"/>
</svg>
