<svg height="35" viewBox="0 0 512 512" width="40" xmlns="http://www.w3.org/2000/svg"><g id="Fill_out_line" data-name="Fill out line"><path d="m176 232h64v32h-64z" fill="#efdd9b"/><path d="m248 136v32l56 16v80h128v-80l56-16v-32z" fill="#c5d5e1"/><path d="m488 264-19.19995 72-6.55 24.58008a45.27765 45.27765 0 0 0 -54.25005 7.41992 45.26651 45.26651 0 0 1 -64 0 45.26651 45.26651 0 0 0 -64 0 45.26651 45.26651 0 0 1 -64 0 45.26651 45.26651 0 0 0 -64 0 45.10315 45.10315 0 0 1 -32 13.25h-.02a45.14047 45.14047 0 0 1 -31.98-13.25 45.327 45.327 0 0 0 -11.64-8.42993q-2.22-11.88025-5.30995-23.57007a331.57319 331.57319 0 0 0 -36.32005-86.12012l-10.73-17.87988h160l32 32z" fill="#396796"/><path d="m468.80005 336-6.55 24.58008a45.27765 45.27765 0 0 0 -54.25005 7.41992 45.26651 45.26651 0 0 1 -64 0 45.26651 45.26651 0 0 0 -64 0 45.26651 45.26651 0 0 1 -64 0 45.26651 45.26651 0 0 0 -64 0 45.10315 45.10315 0 0 1 -32 13.25h-.02a45.14047 45.14047 0 0 1 -31.98-13.25 45.327 45.327 0 0 0 -11.64-8.42993q-2.22-11.88025-5.30995-23.57007z" fill="#d2393b"/><path d="m488 264-19.19995 72-6.55 24.58008a45.27765 45.27765 0 0 0 -54.25005 7.41992 45.26651 45.26651 0 0 1 -64 0 45.26651 45.26651 0 0 0 -64 0 45.26651 45.26651 0 0 1 -64 0 45.26651 45.26651 0 0 0 -64 0 45.10315 45.10315 0 0 1 -32 13.25h-.02a302.56758 302.56758 0 0 0 -3.79-45.25 304.38378 304.38378 0 0 0 -28.38989-88.3999l-7.80011-15.6001h104l32 32z" fill="#2d80b4"/><path d="m468.80005 336-6.55 24.58008a45.27765 45.27765 0 0 0 -54.25005 7.41992 45.26651 45.26651 0 0 1 -64 0 45.26651 45.26651 0 0 0 -64 0 45.26651 45.26651 0 0 1 -64 0 45.26651 45.26651 0 0 0 -64 0 45.10315 45.10315 0 0 1 -32 13.25h-.02a302.56758 302.56758 0 0 0 -3.79-45.25z" fill="#e54042"/><path d="m240 232h64v32h-64z" fill="#e54042"/><path d="m96 200h48v32h-48z" fill="#efdd9b"/><path d="m144 200h48v32h-48z" fill="#e54042"/><path d="m192 200h48v32h-48z" fill="#8fc837"/><path d="m240 200h64v32h-64z" fill="#efdd9b"/><path d="m304 232h64v32h-64z" fill="#efdd9b"/><path d="m304 200h64v32h-64z" fill="#8fc837"/><path d="m392 88h-48a43.26659 43.26659 0 0 1 0 48h48a43.26659 43.26659 0 0 1 0-48z" fill="#a7b3bd"/><rect fill="#c5d5e1" height="32" rx="16" width="96" x="320" y="56"/><path d="m368 24a16 16 0 0 1 16 16v16a0 0 0 0 1 0 0h-32a0 0 0 0 1 0 0v-16a16 16 0 0 1 16-16z" fill="#a7b3bd"/><path d="m136 344v34.33984a45.32773 45.32773 0 0 1 -16 2.91016h-.02a45.50113 45.50113 0 0 1 -15.98-2.91992v-34.33008a16 16 0 0 1 32 0z" fill="#c5d5e1"/><path d="m336 384v-24a24 24 0 0 1 24-24 24 24 0 0 1 24 24v24a24 24 0 0 0 24 24h32a16 16 0 0 1 16 16 16 16 0 0 1 -16 16h-44a12 12 0 0 0 -12 12 12 12 0 0 0 12 12h32a12 12 0 0 1 12 12 12 12 0 0 1 -12 12h-348a16 16 0 0 1 -16-16 16 16 0 0 1 16-16h188a12 12 0 0 0 12-12 12 12 0 0 0 -12-12h-16a12 12 0 0 1 -12-12 12 12 0 0 1 12-12h60a24 24 0 0 0 24-24z" fill="#2f4054"/><path d="m490.2 175.68994a8.001 8.001 0 0 0 5.8-7.68994v-32a7.9979 7.9979 0 0 0 -8-8h-91.41992a35.0695 35.0695 0 0 1 0-32h3.41992a24 24 0 0 0 0-48h-8v-8a24 24 0 0 0 -48 0v8h-8a24 24 0 0 0 0 48h3.41992a35.0695 35.0695 0 0 1 0 32h-91.41992a7.99786 7.99786 0 0 0 -8 8v32a8.001 8.001 0 0 0 5.8 7.68994l50.2 14.34006v1.97h-200a7.99786 7.99786 0 0 0 -8 8v24h-64a8.00427 8.00427 0 0 0 -6.86 12.12012l10.73 17.87988a323.75079 323.75079 0 0 1 35.45 84.04l15.47-4.08a339.93472 339.93472 0 0 0 -37.2-88.2l-3.46-5.76h36.92l5.6 11.17993a297.76244 297.76244 0 0 1 22.96 62.71021l15.54-3.78028a313.69043 313.69043 0 0 0 -24.19-66.08986l-2.01-4.02h87.74l29.65 29.65991a8.008 8.008 0 0 0 5.66 2.34009h261.59009l-18.65015 69.93994 15.46006 4.12012 21.33-80a8.008 8.008 0 0 0 -7.73-10.06006h-48v-65.97zm-354.2 48.31006h-32v-16h32zm48 0h-32v-16h32zm48 32h-12.69l-15.99-16h28.68zm0-32h-32v-16h32zm64 32h-48v-16h48zm0-32h-48v-16h48zm64-184a8 8 0 0 1 16 0v8h-16zm-24 40a8 8 0 0 1 0-16h64a8 8 0 0 1 0 16zm43.28 48h-22.56a51.04259 51.04259 0 0 0 0-32h22.56a51.04259 51.04259 0 0 0 0 32zm-19.28 128h-48v-16h48zm0-32h-48v-16h48zm69.80005-47.68994a8.001 8.001 0 0 0 -5.80005 7.68994v72h-48v-56a7.9979 7.9979 0 0 0 -8-8h-56v-8a8.001 8.001 0 0 0 -5.8-7.68994l-50.2-14.34006v-17.97h224v17.97z"/><path d="m328 160h16v16h-16z"/><path d="m360 160h16v16h-16z"/><path d="m392 160h16v16h-16z"/><circle cx="272" cy="304" r="8"/><circle cx="320" cy="304" r="8"/><circle cx="368" cy="304" r="8"/><circle cx="416" cy="304" r="8"/><path d="m144 352v-8a24 24 0 0 0 -48 0v8h16v-8a8 8 0 0 1 16 0v8z"/><path d="m402.34277 362.34375a37.19993 37.19993 0 0 1 -10.34277 7.28662v-9.63037a31.99564 31.99564 0 0 0 -62.312-10.23364 53.297 53.297 0 0 0 -55.34473 12.57641 37.26588 37.26588 0 0 1 -52.68652 0 53.26714 53.26714 0 0 0 -75.31348 0 37.26588 37.26588 0 0 1 -52.68652 0 53.26714 53.26714 0 0 0 -75.31348 0l11.31348 11.31446a37.26588 37.26588 0 0 1 52.68652 0 53.26714 53.26714 0 0 0 75.31348 0 37.26588 37.26588 0 0 1 52.68652 0 53.26714 53.26714 0 0 0 75.31348 0 37.24173 37.24173 0 0 1 42.34325-7.29029v17.63306a16.01833 16.01833 0 0 1 -16 16h-60a20 20 0 0 0 0 40h16a4 4 0 0 1 0 8h-188a24 24 0 0 0 0 48h348a20 20 0 0 0 0-40h-32a4 4 0 0 1 0-8h44a24 24 0 0 0 0-48h-32a16.01369 16.01369 0 0 1 -15.751-13.27954 53.01569 53.01569 0 0 0 21.40772-13.06323 37.29779 37.29779 0 0 1 52.68652 0l11.31348-11.31446a53.31617 53.31617 0 0 0 -75.31395.00098zm5.65723 53.65625h32a8 8 0 0 1 0 16h-44a20 20 0 0 0 0 40h32a4 4 0 0 1 0 8h-348a8 8 0 0 1 0-16h188a20 20 0 0 0 0-40h-16a4 4 0 0 1 0-8h60a32.03635 32.03635 0 0 0 32-32v-24a16 16 0 0 1 32 0v24a32.03635 32.03635 0 0 0 32 32z"/></g></svg>