<svg width="30" height="30" viewBox="0 0 30 30" fill="none" xmlns="http://www.w3.org/2000/svg">
<g clip-path="url(#clip0)">
<path d="M29.9351 12.7533C29.8462 12.5969 29.6802 12.4999 29.5001 12.4999H25.5C25.3328 12.4999 25.1768 12.5834 25.084 12.7223L23.3999 15.2499L20 12.2729V8.99992C20 8.85295 19.9353 8.71355 19.8233 8.61858C19.7112 8.5236 19.563 8.48283 19.418 8.507L17 8.90691V7.99992C17 7.85295 16.9353 7.71354 16.8233 7.61857C16.7112 7.5236 16.563 7.48283 16.418 7.507L14 7.9069V6.99992C14 6.84611 13.929 6.7006 13.8079 6.60588C13.6865 6.51115 13.5283 6.4777 13.3789 6.51481L9.37892 7.51481C9.24147 7.54899 9.12477 7.63981 9.05812 7.76481L7.66457 10.3998L4.40748 11.0109C4.17213 11.0551 4.00123 11.2604 4.00001 11.4999V17.9999H3.00001V16.4999H2.00001V17.9999H1V16.4999H2.60734e-06V18.4999C-0.000485675 18.6516 0.0676297 18.7951 0.18555 18.8903L2.68555 20.8903C2.7566 20.9472 2.8418 20.9836 2.93189 20.9953L10.3726 21.9875L16.8186 24.467C16.9961 24.5354 17.1971 24.497 17.3369 24.3681C17.4771 24.2392 17.5318 24.0419 17.4781 23.8593L16.6365 20.9838L19.5411 20.4999H23.2325L25.0826 23.2775C25.1756 23.4169 25.3323 23.5004 25.5 23.5H29.5001C29.6802 23.5 29.8465 23.403 29.9351 23.246C30.024 23.0893 30.0213 22.8969 29.9285 22.7424L27.0831 17.9999L29.9285 13.2575C30.0215 13.103 30.024 12.9103 29.9351 12.7533V12.7533ZM9.83742 8.43083L13 7.6403V8.49992C13 8.6469 13.0647 8.7863 13.1768 8.88127C13.2888 8.97624 13.437 9.01701 13.5821 8.99284L16 8.59294V9.49992C16 9.6469 16.0647 9.7863 16.1768 9.88127C16.2888 9.97624 16.437 10.017 16.5821 9.99285L19 9.59294V11.7929L12.668 9.52947C12.5847 9.49919 12.4947 9.49211 12.4075 9.50896L8.92043 10.1623L9.83742 8.43083ZM1.92554 18.9999H15.409L17.5782 19.8134L10.4915 20.9943L3.20362 20.0229L1.92554 18.9999ZM16.2366 23.1704L12.3916 21.6914L15.6446 21.1498L16.2366 23.1704ZM15.6761 18.0314C15.6197 18.0104 15.5601 17.9999 15.5 17.9999H9.00002V16.4999H8.00002V17.9999H7.00001V16.4999H6.00001V17.9999H5.00001V11.915L12.459 10.5148L19.242 12.9374L23 16.227V19.4999H19.5911L15.6761 18.0314ZM28.0171 14.4999H26V15.4999H27.417L26.8169 16.4999H25V17.4999H26.2171L26.0716 17.7424C25.9764 17.9008 25.9764 18.0991 26.0716 18.2575L26.5171 18.9999H25V19.9999H27.117L27.7171 20.9999H26.5V21.9999H28.3165L28.6165 22.4999H25.7666L24 19.8498V16.1498L25.7676 13.4999H28.6175L28.0171 14.4999Z" fill="white"/>
<path d="M7.49976 16.5C8.88038 16.5 9.99976 15.3806 9.99976 14C9.99976 12.6194 8.88038 11.5 7.49976 11.5C6.11914 11.5 4.99976 12.6194 4.99976 14C5.00146 15.3799 6.11963 16.4983 7.49976 16.5ZM7.49976 12.5C8.26343 12.4968 8.90748 13.0679 8.99586 13.8262C9.08423 14.5847 8.58887 15.2886 7.84497 15.4612C7.10108 15.6338 6.34619 15.22 6.0918 14.5H7.49976V13.5H6.0918C6.30298 12.9028 6.86646 12.5027 7.49976 12.5Z" fill="white"/>
<path d="M11.5002 11.5H12.5002V12.5H11.5002V11.5Z" fill="white"/>
<path d="M13.5 12.5H14.5V13.5H13.5V12.5Z" fill="white"/>
<path d="M15.9998 13H16.9998V14H15.9998V13Z" fill="white"/>
<path d="M11 13.5H12V14.5H11V13.5Z" fill="white"/>
<path d="M14.5002 14.5H15.5002V15.5H14.5002V14.5Z" fill="white"/>
<path d="M18.0002 14H19.0002V15H18.0002V14Z" fill="white"/>
<path d="M19.9998 15.5H20.9998V16.5H19.9998V15.5Z" fill="white"/>
<path d="M0 10C0 10.8284 0.671632 11.5 1.5 11.5C2.32837 11.5 3.00001 10.8284 3.00001 10C3.00001 9.17163 2.32837 8.5 1.5 8.5C0.671632 8.5 0 9.17163 0 10ZM1.5 9.5C1.77613 9.5 2 9.72388 2 10C2 10.2761 1.77613 10.5 1.5 10.5C1.22388 10.5 1 10.2761 1 10C1 9.72388 1.22388 9.5 1.5 9.5Z" fill="white"/>
<path d="M7.50001 5.5C7.50001 4.39551 6.6045 3.5 5.5 3.5C4.39551 3.5 3.5 4.39551 3.5 5.5C3.5 6.6045 4.39551 7.50001 5.5 7.50001C6.6045 7.50001 7.50001 6.6045 7.50001 5.5ZM4.5 5.5C4.5 4.94776 4.94776 4.5 5.5 4.5C6.05225 4.5 6.50001 4.94776 6.50001 5.5C6.50001 6.05225 6.05225 6.50001 5.5 6.50001C4.94776 6.50001 4.5 6.05225 4.5 5.5Z" fill="white"/>
<path d="M21 23.5C20.1716 23.5 19.5 24.1716 19.5 25C19.5 25.8284 20.1716 26.5 21 26.5C21.8284 26.5 22.5 25.8284 22.5 25C22.5 24.1716 21.8284 23.5 21 23.5ZM21 25.5C20.7239 25.5 20.5 25.2761 20.5 25C20.5 24.7239 20.7239 24.5 21 24.5C21.2761 24.5 21.5 24.7239 21.5 25C21.5 25.2761 21.2761 25.5 21 25.5Z" fill="white"/>
<path d="M29 9.5C29 8.67163 28.3284 8 27.5 8C26.6716 8 26 8.67163 26 9.5C26 10.3284 26.6716 11 27.5 11C28.3284 11 29 10.3284 29 9.5ZM27 9.5C27 9.22388 27.2239 9 27.5 9C27.7761 9 28 9.22388 28 9.5C28 9.77613 27.7761 10 27.5 10C27.2239 10 27 9.77613 27 9.5Z" fill="white"/>
<path d="M23 11H24V12H23V11Z" fill="white"/>
<path d="M1 5.5H2V6.5H1V5.5Z" fill="white"/>
<path d="M4.00024 8.5H5.00025V9.5H4.00024V8.5Z" fill="white"/>
<path d="M18.5 21.5H19.5V22.5H18.5V21.5Z" fill="white"/>
<path d="M24 24.5H25V25.5H24V24.5Z" fill="white"/>
<path d="M3 22.5H4V23.5H3V22.5Z" fill="white"/>
</g>
<defs>
<clipPath id="clip0">
<rect width="30" height="30" fill="white"/>
</clipPath>
</defs>
</svg>
