<svg width="50" height="50" viewBox="0 0 50 50" fill="none" xmlns="http://www.w3.org/2000/svg">
<path d="M31.8711 38.0859C29.781 38.0859 27.7802 37.1948 26.3817 35.6411L25.9453 35.1562H24.0547L23.6183 35.6411C22.2199 37.1948 20.219 38.0859 18.1288 38.0859H17.6758V41.0156H18.1288C20.672 41.0156 23.1201 40.0714 25 38.3936C26.8799 40.0714 29.328 41.0156 31.8711 41.0156H32.3242V38.0859H31.8711Z" fill="white"/>
<path d="M20.6055 26.3672H17.6758V29.2969H20.6055V26.3672Z" fill="white"/>
<path d="M50 10.2539V8.78906H48.5352C42.5022 8.78906 36.4884 6.52275 31.6017 2.40752C29.758 0.85498 27.4136 0 25 0C22.5865 0 20.242 0.85498 18.3983 2.40752C13.5116 6.52275 7.49785 8.78906 1.46484 8.78906H0V10.2539C0 15.9951 3.7166 20.8901 8.88672 22.6948V23.4375C5.65586 23.4375 3.02734 26.066 3.02734 29.2969C3.02734 32.5277 5.65586 35.1562 8.88672 35.1562H8.95264C9.68057 43.3445 16.5436 50 25 50C33.4538 50 40.3192 43.3476 41.0474 35.1562H41.1133C44.3441 35.1562 46.9727 32.5277 46.9727 29.2969C46.9727 26.066 44.3441 23.4375 41.1133 23.4375V22.6948C46.2833 20.8901 50 15.9951 50 10.2539ZM8.88672 32.2266C7.27129 32.2266 5.95703 30.9123 5.95703 29.2969C5.95703 27.6814 7.27129 26.3672 8.88672 26.3672V32.2266ZM25 47.0703C17.7306 47.0703 11.8164 41.0686 11.8164 33.6914V23.4375V23.3569C12.2976 23.4096 12.7861 23.4375 13.2812 23.4375H21.6268L26.5993 26.7525C26.5118 27.098 26.4648 27.4597 26.4648 27.832C26.4648 30.2552 28.4362 32.2266 30.8594 32.2266C31.8463 32.2266 32.7582 31.8994 33.4926 31.348L38.1613 34.4605C37.7672 41.4812 32.015 47.0703 25 47.0703ZM29.3945 27.832C29.3945 27.0243 30.0517 26.3672 30.8594 26.3672C31.6671 26.3672 32.3242 27.0243 32.3242 27.832C32.3242 28.6397 31.6671 29.2969 30.8594 29.2969C30.0517 29.2969 29.3945 28.6397 29.3945 27.832ZM38.1836 23.4375V30.9543L35.1193 28.9115C35.2069 28.566 35.2539 28.2044 35.2539 27.832C35.2539 25.4089 33.2825 23.4375 30.8594 23.4375C29.8725 23.4375 28.9605 23.7646 28.2262 24.316L26.9084 23.4375H30.8594H36.7188C37.2139 23.4375 37.7024 23.4096 38.1836 23.3569V23.4375ZM44.043 29.2969C44.043 30.9123 42.7287 32.2266 41.1133 32.2266V26.3672C42.7287 26.3672 44.043 27.6814 44.043 29.2969ZM36.7188 20.5078H13.2812C8.05977 20.5078 3.72871 16.658 3.02852 11.6736C9.21719 11.3169 15.2913 8.8542 20.2854 4.64854C21.6017 3.54004 23.276 2.92969 25 2.92969C26.724 2.92969 28.3983 3.54004 29.7145 4.64854C34.7087 8.8542 40.7828 11.3169 46.9714 11.6736C46.2713 16.658 41.9403 20.5078 36.7188 20.5078Z" fill="white"/>
<path d="M30.1791 8.61138L28.1075 6.53979L25.0001 9.64722L21.8926 6.53979L19.821 8.61138L22.9285 11.7188L19.821 14.8262L21.8926 16.8978L25.0001 13.7904L28.1075 16.8978L30.1791 14.8262L27.0716 11.7188L30.1791 8.61138Z" fill="white"/>
</svg>
