<svg width="30" height="30" viewBox="0 0 30 30" fill="none" xmlns="http://www.w3.org/2000/svg">
<g clip-path="url(#clip0)">
<path d="M29.9351 12.7534C29.8462 12.5969 29.6802 12.5 29.5001 12.5H25.5C25.3328 12.5 25.1768 12.5835 25.084 12.7224L23.3999 15.25L20 12.2729V8.99999C20 8.85302 19.9353 8.71361 19.8233 8.61864C19.7112 8.52367 19.563 8.4829 19.418 8.50707L17 8.90697V7.99999C17 7.85302 16.9353 7.71361 16.8233 7.61864C16.7112 7.52367 16.563 7.4829 16.418 7.50707L14 7.90697V6.99999C14 6.84618 13.929 6.70067 13.8079 6.60594C13.6865 6.51122 13.5283 6.47777 13.3789 6.51488L9.37892 7.51488C9.24147 7.54906 9.12477 7.63988 9.05812 7.76488L7.66457 10.3999L4.40748 11.011C4.17213 11.0552 4.00123 11.2605 4.00001 11.5V18H3.00001V16.5H2.00001V18H1V16.5H2.60734e-06V18.5C-0.000485675 18.6516 0.0676297 18.7952 0.18555 18.8904L2.68555 20.8904C2.7566 20.9473 2.8418 20.9837 2.93189 20.9954L10.3726 21.9876L16.8186 24.4671C16.9961 24.5354 17.1971 24.4971 17.3369 24.3682C17.4771 24.2393 17.5318 24.042 17.4781 23.8594L16.6365 20.9839L19.541 20.5H23.2325L25.0826 23.2776C25.1756 23.417 25.3323 23.5005 25.5 23.5H29.5001C29.6802 23.5 29.8465 23.4031 29.9351 23.2461C30.024 23.0894 30.0213 22.897 29.9285 22.7425L27.0831 18L29.9285 13.2576C30.0215 13.103 30.024 12.9104 29.9351 12.7534ZM9.83742 8.4309L13 7.64037V8.49999C13 8.64696 13.0647 8.78637 13.1768 8.88134C13.2888 8.97631 13.437 9.01708 13.5821 8.99291L16 8.59301V9.49999C16 9.64697 16.0647 9.78637 16.1768 9.88134C16.2888 9.97631 16.437 10.0171 16.5821 9.99291L19 9.59301V11.793L12.668 9.52953C12.5847 9.49926 12.4947 9.49218 12.4075 9.50903L8.92043 10.1623L9.83742 8.4309ZM1.92554 19H15.409L17.5782 19.8135L10.4915 20.9944L3.20362 20.023L1.92554 19ZM16.2366 23.1704L12.3916 21.6914L15.6446 21.1499L16.2366 23.1704ZM15.6761 18.0315C15.6197 18.0105 15.5601 18 15.5 18H9.00002V16.5H8.00002V18H7.00001V16.5H6.00001V18H5.00001V11.915L12.459 10.5149L19.242 12.9375L23 16.2271V19.5H19.5911L15.6761 18.0315ZM28.0171 14.5H26V15.5H27.417L26.8169 16.5H25V17.5H26.2171L26.0716 17.7424C25.9764 17.9009 25.9764 18.0991 26.0716 18.2576L26.5171 19H25V20H27.117L27.7171 21H26.5V22H28.3165L28.6165 22.5H25.7666L24 19.8499V16.1499L25.7676 13.5H28.6175L28.0171 14.5Z" fill="black"/>
<path d="M7.49952 16.5C8.88013 16.5 9.99952 15.3806 9.99952 14C9.99952 12.6194 8.88013 11.5 7.49952 11.5C6.1189 11.5 4.99951 12.6194 4.99951 14C5.00122 15.3799 6.11939 16.4983 7.49952 16.5ZM7.49952 12.5C8.26319 12.4968 8.90723 13.0679 8.99561 13.8262C9.08399 14.5847 8.58863 15.2886 7.84473 15.4612C7.10083 15.6338 6.34595 15.22 6.09155 14.5H7.49952V13.5H6.09155C6.30274 12.9028 6.86621 12.5027 7.49952 12.5Z" fill="black"/>
<path d="M11.5005 11.5H12.5005V12.5H11.5005V11.5Z" fill="black"/>
<path d="M13.5 12.5H14.5V13.5H13.5V12.5Z" fill="black"/>
<path d="M16 13H17V14H16V13Z" fill="black"/>
<path d="M11 13.5H12V14.5H11V13.5Z" fill="black"/>
<path d="M14.5005 14.5H15.5005V15.5H14.5005V14.5Z" fill="black"/>
<path d="M18 14H19V15H18V14Z" fill="black"/>
<path d="M19.9995 15.5H20.9995V16.5H19.9995V15.5Z" fill="black"/>
<path d="M0 9.99999C0 10.8284 0.671632 11.5 1.5 11.5C2.32837 11.5 3.00001 10.8284 3.00001 9.99999C3.00001 9.17162 2.32837 8.49998 1.5 8.49998C0.671632 8.49998 0 9.17162 0 9.99999ZM1.5 9.49999C1.77613 9.49999 2 9.72386 2 9.99999C2 10.2761 1.77613 10.5 1.5 10.5C1.22388 10.5 1 10.2761 1 9.99999C1 9.72386 1.22388 9.49999 1.5 9.49999Z" fill="black"/>
<path d="M7.50001 5.49999C7.50001 4.39549 6.6045 3.49998 5.5 3.49998C4.39551 3.49998 3.5 4.39549 3.5 5.49999C3.5 6.60448 4.39551 7.49999 5.5 7.49999C6.6045 7.49999 7.50001 6.60448 7.50001 5.49999ZM4.5 5.49999C4.5 4.94774 4.94776 4.49999 5.5 4.49999C6.05225 4.49999 6.50001 4.94774 6.50001 5.49999C6.50001 6.05224 6.05225 6.49999 5.5 6.49999C4.94776 6.49999 4.5 6.05224 4.5 5.49999Z" fill="black"/>
<path d="M21 23.5C20.1716 23.5 19.5 24.1716 19.5 25C19.5 25.8284 20.1716 26.5 21 26.5C21.8284 26.5 22.5 25.8284 22.5 25C22.5 24.1716 21.8284 23.5 21 23.5ZM21 25.5C20.7239 25.5 20.5 25.2761 20.5 25C20.5 24.7239 20.7239 24.5 21 24.5C21.2761 24.5 21.5 24.7239 21.5 25C21.5 25.2761 21.2761 25.5 21 25.5Z" fill="black"/>
<path d="M29 9.49999C29 8.67162 28.3284 7.99999 27.5 7.99999C26.6716 7.99999 26 8.67162 26 9.49999C26 10.3284 26.6716 11 27.5 11C28.3284 11 29 10.3284 29 9.49999ZM27 9.49999C27 9.22387 27.2239 8.99999 27.5 8.99999C27.7761 8.99999 28 9.22387 28 9.49999C28 9.77612 27.7761 10 27.5 10C27.2239 10 27 9.77612 27 9.49999Z" fill="black"/>
<path d="M23 11H24V12H23V11Z" fill="black"/>
<path d="M1 5.49998H2V6.49999H1V5.49998Z" fill="black"/>
<path d="M4.00049 8.49998H5.00049V9.49999H4.00049V8.49998Z" fill="black"/>
<path d="M18.5 21.5H19.5V22.5H18.5V21.5Z" fill="black"/>
<path d="M24 24.5H25V25.5H24V24.5Z" fill="black"/>
<path d="M3 22.5H4V23.5H3V22.5Z" fill="black"/>
</g>
<defs>
<clipPath id="clip0">
<rect width="30" height="30" fill="white"/>
</clipPath>
</defs>
</svg>
