<svg width="30" height="30" viewBox="0 0 137 176" fill="none" xmlns="http://www.w3.org/2000/svg">
<path d="M190.625 100C190.66 110.703 190.017 121.398 188.699 132.02C183.355 173.934 168.75 190.625 168.75 190.625H9.375V171.875C128.469 161.52 105.996 71.8008 94.7852 41.3281C92.3703 40.9702 89.9388 40.7355 87.5 40.625C87.5 40.625 40.625 37.5 43.75 75C43.75 75 18.75 68.75 25 43.75C31.25 18.75 56.25 25 56.25 25C56.25 25 62.5 9.375 84.375 9.375C106.25 9.375 115.625 28.125 115.625 28.125C131.25 9.375 190.625 34.375 190.625 100Z" fill="#3397E8"/>
<path d="M100 190.625C100 190.625 140.625 168.75 140.625 131.25C140.625 93.75 118.75 103.125 118.75 103.125C118.75 103.125 121.875 87.5 106.25 81.25C90.625 75 81.25 87.5 81.25 87.5C81.25 87.5 53.125 75 46.875 100C40.625 125 68.75 125 68.75 125C68.75 125 65.9891 106.802 84.375 103.125C100 100 143.75 125 100 190.625Z" fill="#A3D4F7"/>
<path d="M190.625 100C190.66 110.703 190.017 121.398 188.699 132.02C168.75 81.25 144.715 48.707 94.7851 41.3281C92.3702 40.9702 89.9387 40.7355 87.4999 40.625C87.4999 40.625 40.6249 37.5 43.7499 75C43.7499 75 18.7499 68.75 24.9999 43.75C31.2499 18.75 56.2499 25 56.2499 25C56.2499 25 62.4999 9.375 84.3749 9.375C106.25 9.375 115.625 28.125 115.625 28.125C131.25 9.375 190.625 34.375 190.625 100Z" fill="#A3D4F7"/>
</svg>
