<svg width="40" height="20" viewBox="0 0 40 20" fill="none" xmlns="http://www.w3.org/2000/svg">
<path d="M17.66 6.96838C16.8543 3.41757 14.7221 1.04954 12.3333 1.05259H8.99995C6.77355 1.04917 4.75329 3.10981 3.83993 6.31575C3.16436 8.65608 3.16436 11.3439 3.83993 13.6842C4.7549 16.8879 6.77415 18.9475 8.99995 18.9473H12.3333C14.8386 18.9494 17.0465 16.3498 17.76 12.5579H17.7667C17.9224 11.7276 18.001 10.8659 18 9.99997C18.0005 8.96572 17.8854 7.93945 17.66 6.96838ZM12.3333 14.7368H8.99995C7.34309 14.7368 5.99994 12.6161 5.99994 9.99997C5.99994 7.38388 7.34309 5.26312 8.99995 5.26312H9.99996L12.6666 5.2947C14.2433 5.58342 15.4047 7.76134 15.3164 10.2636C15.228 12.7659 13.9205 14.7266 12.3333 14.7368Z" fill="#02A9F4"/>
<path d="M17.66 6.96838C16.8543 3.41757 14.7221 1.04955 12.3333 1.05259L10.3333 1.05258C12.7221 1.04954 14.8543 3.41757 15.66 6.96838C15.8854 7.93945 16.0005 8.96572 16 9.99997C16.001 10.8659 15.9224 11.7276 15.7666 12.5579H15.76C15.0465 16.3498 12.8386 18.9494 10.3333 18.9473H12.3333C14.8386 18.9494 17.0465 16.3498 17.76 12.5579H17.7667C17.9224 11.7276 18.001 10.8659 18 9.99997C18.0005 8.96572 17.8854 7.93945 17.66 6.96838Z" fill="#0377BC"/>
<path d="M15.3334 10.0001C15.3308 12.6145 13.9892 14.7328 12.3334 14.7369H9.00001C7.34315 14.7369 6 12.6161 6 10.0001C6 7.38397 7.34315 5.26321 9.00001 5.26321H10L12.6667 5.29479C14.1846 5.56274 15.3326 7.5885 15.3334 10.0001Z" fill="#00BCD4"/>
<path d="M12.6667 5.29479L10 5.26321H9.00002C8.97668 5.26321 8.95468 5.27374 8.93335 5.27374L10.6667 5.29479C12.2434 5.58352 13.4048 7.76143 13.3164 10.2637C13.2281 12.766 11.9206 14.7266 10.3334 14.7369H12.3334C13.9206 14.7266 15.2281 12.766 15.3164 10.2637C15.4048 7.76143 14.2434 5.58352 12.6667 5.29479Z" fill="#00838F"/>
<path d="M36.1601 6.31574C35.2451 3.11199 33.2259 1.05238 31 1.05258H27.6667C26.1636 1.05061 24.7218 1.99376 23.66 3.67364C22.6023 5.35666 22.006 7.6289 22 9.99995C21.9966 12.3746 22.5926 14.6535 23.656 16.3326C24.7195 18.0117 26.1628 18.9527 27.6667 18.9473H31C33.2265 18.9507 35.2467 16.8901 36.1601 13.6842C36.8356 11.3438 36.8356 8.65607 36.1601 6.31574ZM31 14.7368H30L27.3334 14.7052C25.7567 14.4165 24.5953 12.2386 24.6836 9.73629C24.772 7.23399 26.0795 5.27337 27.6667 5.26311H31C32.6569 5.26311 34.0001 7.38387 34.0001 9.99995C34.0001 12.616 32.6569 14.7368 31 14.7368Z" fill="#02A9F4"/>
<path d="M36.1599 6.3159C35.245 3.11214 33.2258 1.05253 31 1.05273H29C31.2258 1.05253 33.245 3.11214 34.16 6.3159C35.1283 9.70734 34.6694 13.6907 33.0066 16.3264C31.9448 18.0063 30.5031 18.9495 29 18.9475L31 18.9475C33.2264 18.9509 35.2466 16.8903 36.1599 13.6843C36.8355 11.344 36.8355 8.65622 36.1599 6.3159Z" fill="#0377BC"/>
<path d="M33.9999 10.0001C33.9973 12.6145 32.6557 14.7328 30.9999 14.7369H29.9999L27.3332 14.7053C25.7565 14.4166 24.5951 12.2387 24.6834 9.73639C24.7718 7.2341 26.0793 5.27347 27.6665 5.26321H30.9999C32.6557 5.26727 33.9973 7.38565 33.9999 10.0001Z" fill="#00BCD4"/>
<path d="M31 5.26321H29C30.6025 5.35103 31.8779 7.41294 31.8958 9.94452C31.9136 12.4761 30.6675 14.5823 29.0667 14.7264L30 14.7369H31C32.6569 14.7369 34 12.6161 34 10.0001C34 7.38397 32.6569 5.26321 31 5.26321Z" fill="#00838F"/>
<path d="M3.33342 10C3.33187 11.2714 3.50472 12.5283 3.84009 13.6842H2.66675C1.56218 13.6842 0.666748 12.2704 0.666748 10.5263V9.47369C0.666748 7.72963 1.56218 6.3158 2.66675 6.3158H3.84009C3.50472 7.47171 3.33187 8.72858 3.33342 10Z" fill="#283593"/>
<path d="M39.3334 9.47369V10.5263C39.3334 12.2704 38.438 13.6842 37.3334 13.6842H36.1602C36.8357 11.3439 36.8357 8.65612 36.1602 6.3158H37.3334C38.438 6.3158 39.3334 7.72963 39.3334 9.47369Z" fill="#283593"/>
<path d="M22.0001 10C21.9991 10.866 22.0777 11.7276 22.2334 12.5579C20.7877 11.7579 19.2126 11.7579 17.7668 12.5579C17.9226 11.7276 18.0012 10.866 18.0002 10C18.0007 8.96576 17.8856 7.93949 17.6602 6.96843C19.1711 6.09475 20.8292 6.09475 22.3401 6.96843C22.1147 7.93949 21.9996 8.96576 22.0001 10Z" fill="#0377BC"/>
<path d="M12.7399 4.24843C12.4995 4.1951 12.2596 4.35243 12.1139 4.65914C11.9682 4.96585 11.9396 5.37341 12.0393 5.72302C12.139 6.07264 12.3512 6.309 12.5933 6.34001C13.8205 6.56319 14.725 8.25809 14.656 10.2057C14.5871 12.1532 13.5687 13.6784 12.3333 13.6842H8.99993C7.71126 13.6842 6.66659 12.0348 6.66659 10C6.66659 7.96528 7.71126 6.31581 8.99993 6.31581H9.99993C10.3681 6.31581 10.6666 5.84453 10.6666 5.26317C10.6666 4.68182 10.3681 4.21054 9.99993 4.21054H8.99993C6.97488 4.21054 5.33325 6.80258 5.33325 10C5.33325 13.1975 6.97488 15.7895 8.99993 15.7895H12.3333C14.2745 15.7795 15.8744 13.3821 15.9823 10.3217C16.0901 7.26121 14.6685 4.59842 12.7399 4.24843Z" fill="black"/>
<path d="M30.9998 4.21054H27.6665C25.7252 4.22057 24.1253 6.61793 24.0175 9.67838C23.9096 12.7388 25.3312 15.4016 27.2598 15.7516C27.5003 15.8049 27.7401 15.6476 27.8858 15.3409C28.0316 15.0342 28.0601 14.6266 27.9604 14.277C27.8607 13.9274 27.6485 13.691 27.4065 13.66C26.1792 13.4368 25.2748 11.7419 25.3437 9.79438C25.4127 7.84682 26.4311 6.32163 27.6665 6.31581H30.9998C32.2885 6.31581 33.3332 7.96528 33.3332 10C33.3332 12.0348 32.2885 13.6842 30.9998 13.6842H29.9998C29.6316 13.6842 29.3332 14.1555 29.3332 14.7369C29.3332 15.3182 29.6316 15.7895 29.9998 15.7895H30.9998C33.0249 15.7895 34.6665 13.1975 34.6665 10C34.6665 6.80258 33.0249 4.21054 30.9998 4.21054Z" fill="black"/>
<path d="M37.3333 5.26316H36.576C35.4712 2.0241 33.33 0.00308695 31 0H27.6667C25.2318 0.00636179 23.0148 2.21616 21.964 5.68421C20.6786 5.1255 19.3214 5.1255 18.036 5.68421C16.9852 2.21616 14.7682 0.00636179 12.3333 0H9C6.66999 0.00308695 4.52885 2.0241 3.424 5.26316H2.66667C1.19391 5.26316 0 7.14827 0 9.47368V10.5263C0 12.8517 1.19391 14.7368 2.66667 14.7368H3.424C4.52885 17.9759 6.66999 19.9969 9 20H12.3333C14.9944 19.9927 17.3692 17.3614 18.2787 13.4126C19.4021 12.8874 20.5979 12.8874 21.7213 13.4126C22.6308 17.3614 25.0056 19.9927 27.6667 20H31C33.33 19.9969 35.4712 17.9759 36.576 14.7368H37.3333C38.8061 14.7368 40 12.8517 40 10.5263V9.47368C40 7.14827 38.8061 5.26316 37.3333 5.26316ZM2.66667 12.6316C1.93029 12.6316 1.33333 11.689 1.33333 10.5263V9.47368C1.33333 8.31098 1.93029 7.36842 2.66667 7.36842H2.89667C2.58998 9.08939 2.58998 10.9106 2.89667 12.6316H2.66667ZM12.3333 17.8947H9C6.23858 17.8947 4 14.3601 4 10C4 5.63986 6.23858 2.10526 9 2.10526H12.3333C15.0948 2.10526 17.3333 5.63986 17.3333 10C17.3333 14.3601 15.0948 17.8947 12.3333 17.8947ZM18.6247 11.1179C18.6518 10.7468 18.6658 10.3736 18.6667 10C18.6649 9.21532 18.6043 8.43372 18.486 7.67158C19.4793 7.26947 20.5207 7.26947 21.514 7.67158C21.336 8.7969 21.289 9.96394 21.3753 11.1158C20.4665 10.8433 19.5333 10.844 18.6247 11.1179ZM31 17.8947H27.6667C24.9052 17.8947 22.6667 14.3601 22.6667 10C22.6667 5.63986 24.9052 2.10526 27.6667 2.10526H31C33.7614 2.10526 36 5.63986 36 10C36 14.3601 33.7614 17.8947 31 17.8947ZM38.6667 10.5263C38.6667 11.689 38.0697 12.6316 37.3333 12.6316H37.1033C37.41 10.9106 37.41 9.08939 37.1033 7.36842H37.3333C38.0697 7.36842 38.6667 8.31098 38.6667 9.47368V10.5263Z" fill="black"/>
</svg>
