<svg width="40" height="36" viewBox="0 0 40 36" fill="none" xmlns="http://www.w3.org/2000/svg">
<path d="M18.3259 17.4749H24.9709V20.9669H18.3259V17.4749Z" fill="#80B4FB"/>
<path d="M10.5936 20.3089L12.3197 20.9392L13.4862 19.9775V12.2533C13.4862 11.9307 13.1917 11.6691 12.8284 11.6691H3.66013C3.29685 11.6691 3.00232 11.9307 3.00232 12.2533V18.8858L4.31169 20.2733H10.3905C10.4602 20.2732 10.5291 20.2854 10.5936 20.3089Z" fill="#E7ECF6"/>
<path d="M12.8283 11.6691H11.1533C11.5166 11.6691 11.8111 11.9307 11.8111 12.2533V20.7535L13.4861 19.9775V12.2533C13.4861 11.9306 13.1916 11.6691 12.8283 11.6691Z" fill="#D8E2F1"/>
<path d="M19.4182 22.4777H16.3514V3.43829C16.3514 3.0425 16.8922 2.84624 17.2044 3.12874L19.0634 4.81089C19.2908 5.01665 19.4182 5.29339 19.4182 5.58172V22.4777Z" fill="#365E7D"/>
<path d="M19.0634 4.81087L17.2044 3.12872C16.8922 2.84622 16.3514 3.04256 16.3514 3.43828V4.2157L17.7864 5.51413C18.0137 5.7199 18.1412 5.99664 18.1412 6.28496V22.4777H19.4182V5.5817C19.4182 5.29338 19.2908 5.01664 19.0634 4.81087Z" fill="#2B4D66"/>
<path d="M39.4143 20.9671C37.7893 22.2936 36.4877 23.6194 35.5112 24.9458C35.0143 25.6195 34.601 26.2938 34.2721 26.9674C34.1588 27.1998 34.0549 27.4322 33.9619 27.6646C33.4924 28.8295 33.2737 29.9936 33.3041 31.1577C33.3182 31.7079 32.8119 32.1574 32.1932 32.1574H6.87358C5.04076 32.1574 3.55482 30.8372 3.55482 29.2096V25.9608C3.55482 25.761 3.51263 25.5626 3.43138 25.376L3.2431 24.9458L0.58606 18.8859H10.3908C10.4603 18.8859 10.5291 18.8977 10.5939 18.9212L15.9064 20.861C16.0978 20.9311 16.3033 20.9671 16.5095 20.9671H39.4143Z" fill="#DF6B57"/>
<path d="M37.2995 20.9671C35.6745 22.2936 34.3729 23.6193 33.3963 24.9458C32.8995 25.6194 32.4862 26.2938 32.1573 26.9674C32.044 27.1998 31.9401 27.4322 31.8471 27.6646C31.3776 28.8294 31.1588 29.9936 31.1893 31.1577C31.2034 31.7078 30.6971 32.1574 30.0784 32.1574H32.1931C32.8118 32.1574 33.3181 31.7078 33.304 31.1577C33.2735 29.9936 33.4923 28.8294 33.9618 27.6646C34.0548 27.4322 34.1587 27.1998 34.272 26.9674C34.6009 26.2938 35.0142 25.6194 35.511 24.9458C36.4876 23.6193 37.7892 22.2936 39.4142 20.9671H37.2995Z" fill="#DD544F"/>
<path d="M10.5114 5.13208H5.97704C5.62032 5.13208 5.33118 5.38884 5.33118 5.70561V11.6693H11.1572V5.70561C11.1573 5.38884 10.8681 5.13208 10.5114 5.13208Z" fill="#C3D5EF"/>
<path d="M10.5114 5.13208H9.0708C9.42751 5.13208 9.71664 5.38884 9.71664 5.70561V11.6693H11.1572V5.70561C11.1572 5.38884 10.868 5.13208 10.5114 5.13208Z" fill="#B7C8EA"/>
<path d="M9.68481 18.8859H6.80359V16.5061C6.80359 16.3237 6.97015 16.1758 7.17554 16.1758H9.31279C9.51825 16.1758 9.68474 16.3238 9.68474 16.5061V18.8859H9.68481Z" fill="#80B4FB"/>
<path d="M31.6162 17.4749H38.2614V20.9669H31.6162V17.4749Z" fill="#B3E59F"/>
<path d="M36.7235 17.4749H38.2614V20.9669H36.7235V17.4749Z" fill="#95D6A4"/>
<path d="M24.9711 17.4749H31.6162V20.9669H24.9711V17.4749Z" fill="#EAB14D"/>
<path d="M30.0784 17.4749H31.6162V20.9669H30.0784V17.4749Z" fill="#E49542"/>
<path d="M31.6162 13.983H38.2614V17.4751H31.6162V13.983Z" fill="#365E7D"/>
<path d="M36.7235 13.983H38.2614V17.4751H36.7235V13.983Z" fill="#2B4D66"/>
<path d="M26.7954 7.4342H33.4406V10.9263H26.7954V7.4342Z" fill="#B3E59F"/>
<path d="M31.9028 7.4342H33.4407V10.9263H31.9028V7.4342Z" fill="#95D6A4"/>
<path d="M24.9711 13.983H31.6162V17.4751H24.9711V13.983Z" fill="#DF6B57"/>
<path d="M30.0784 13.983H31.6162V17.4751H30.0784V13.983Z" fill="#DD544F"/>
<path d="M23.4333 17.4749H24.9712V20.9669H23.4333V17.4749Z" fill="#61A2F9"/>
<path d="M0.586914 31.8102C3.8227 31.8102 3.8227 29.7289 7.05856 29.7289C10.2944 29.7289 10.2943 31.8102 13.5302 31.8102C16.7659 31.8102 16.7659 29.7289 20.0015 29.7289C23.2371 29.7289 23.2371 31.8102 26.4727 31.8102C29.7084 31.8102 29.7084 29.7289 32.944 29.7289C36.1795 29.7289 36.1795 31.8102 39.4152 31.8102V35.8505H0.586992L0.586914 31.8102Z" fill="#D3EFFB"/>
<path d="M32.943 29.7289C29.7074 29.7289 29.7074 31.8102 26.4718 31.8102C23.2362 31.8102 23.2362 29.7289 20.0006 29.7289C16.7649 29.7289 16.7649 31.8102 13.5292 31.8102C10.2934 31.8102 10.2934 29.7289 7.05759 29.7289C3.8218 29.7289 3.8218 31.8102 0.585938 31.8102V33.3776C3.82172 33.3776 3.82172 31.2963 7.05759 31.2963C10.2934 31.2963 10.2934 33.3776 13.5292 33.3776C16.7649 33.3776 16.7649 31.2963 20.0006 31.2963C23.2361 31.2963 23.2361 33.3776 26.4718 33.3776C29.7074 33.3776 29.7074 31.2963 32.943 31.2963C36.1786 31.2963 36.1786 33.3776 39.4142 33.3776V31.8102C36.1786 31.8102 36.1786 29.7289 32.943 29.7289Z" fill="#B1E4F9"/>
<path d="M35.5111 24.9457C35.0142 25.6193 34.601 26.2936 34.272 26.9673C34.1588 27.1997 34.0549 27.4321 33.9619 27.6645H3.55476V25.9606C3.55476 25.7608 3.51257 25.5624 3.43132 25.3758L3.24304 24.9457H35.5111Z" fill="#E7ECF6"/>
<path d="M32.1572 26.9673C32.0439 27.1997 31.94 27.4321 31.847 27.6645H33.9618C34.3416 26.715 34.8843 25.7953 35.511 24.9457H33.3963C32.8994 25.6193 32.4862 26.2936 32.1572 26.9673Z" fill="#D8E2F1"/>
<path d="M8.24426 6.4563C7.92059 6.4563 7.65833 6.68926 7.65833 6.97662V7.42207C7.65833 7.70943 7.92059 7.94239 8.24426 7.94239C8.56793 7.94239 8.8302 7.70943 8.8302 7.42207V6.97662C8.8302 6.68926 8.56786 6.4563 8.24426 6.4563Z" fill="black"/>
<path d="M8.24426 8.52118C7.92059 8.52118 7.65833 8.75414 7.65833 9.0415V9.48702C7.65833 9.77438 7.92059 10.0073 8.24426 10.0073C8.56793 10.0073 8.8302 9.77438 8.8302 9.48702V9.0415C8.8302 8.75414 8.56786 8.52118 8.24426 8.52118Z" fill="black"/>
<path d="M5.82019 14.1721V13.7266C5.82019 13.4393 5.55792 13.2063 5.23425 13.2063C4.91058 13.2063 4.64832 13.4393 4.64832 13.7266V14.1721C4.64832 14.4595 4.91058 14.6925 5.23425 14.6925C5.55792 14.6925 5.82019 14.4595 5.82019 14.1721Z" fill="black"/>
<path d="M8.8302 14.1721V13.7266C8.8302 13.4393 8.56793 13.2063 8.24426 13.2063C7.92059 13.2063 7.65833 13.4393 7.65833 13.7266V14.1721C7.65833 14.4595 7.92059 14.6925 8.24426 14.6925C8.56793 14.6925 8.8302 14.4595 8.8302 14.1721Z" fill="black"/>
<path d="M11.2544 14.6925C11.5781 14.6925 11.8403 14.4595 11.8403 14.1721V13.7266C11.8403 13.4393 11.5781 13.2063 11.2544 13.2063C10.9307 13.2063 10.6685 13.4393 10.6685 13.7266V14.1721C10.6685 14.4595 10.9307 14.6925 11.2544 14.6925Z" fill="black"/>
<path d="M39.4141 31.2898C36.7594 31.2898 36.5555 29.7158 34.0645 29.2972C34.7291 26.1954 37.1824 23.4954 39.8105 21.35C39.9884 21.2049 40.0477 20.9778 39.96 20.778C39.8723 20.5782 39.6555 20.4466 39.4141 20.4466H38.8472C38.8472 19.7781 38.8472 14.6657 38.8472 13.9828C38.8472 13.6955 38.5849 13.4625 38.2612 13.4625C34.6823 13.4625 27.0559 13.4625 24.9711 13.4625C24.6474 13.4625 24.3852 13.6955 24.3852 13.9828V16.9546H20.0041V7.24111L29.5321 3.82368V6.91387H26.7955C26.4719 6.91387 26.2096 7.14683 26.2096 7.43418V10.9263C26.2096 11.2136 26.4719 11.4466 26.7955 11.4466H28.7449C29.0686 11.4466 29.3309 11.2136 29.3309 10.9263C29.3309 10.6389 29.0686 10.4059 28.7449 10.4059H27.3815V7.9545H32.8548V10.4059H31.0877C30.764 10.4059 30.5017 10.6389 30.5017 10.9263C30.5017 11.2136 30.764 11.4466 31.0877 11.4466H33.4407C33.7644 11.4466 34.0266 11.2136 34.0266 10.9263V7.43418C34.0266 7.14683 33.7644 6.91387 33.4407 6.91387H30.7041V3.4034L32.2505 2.84874C32.5505 2.74114 32.6955 2.4379 32.5744 2.17143C32.4532 1.90503 32.1118 1.7762 31.8116 1.8838C29.2352 2.80788 22.4422 5.24435 20.0041 6.11875V5.58165C20.0041 5.15451 19.8186 4.7513 19.4816 4.44639L17.6227 2.76425C17.313 2.48404 16.8484 2.39905 16.4393 2.54745C16.0301 2.69598 15.7656 3.04563 15.7656 3.43823V7.63905L14.0116 8.26814C13.7116 8.37574 13.5666 8.67899 13.6877 8.94546C13.7799 9.14803 13.9994 9.27103 14.2312 9.27103C14.3043 9.27103 14.3786 9.25883 14.4505 9.23302L15.7656 8.76133V20.2468L14.0723 19.6285V12.2532C14.0723 11.6442 13.5144 11.1487 12.8286 11.1487H11.7434V5.70549C11.7434 5.10234 11.1908 4.61164 10.5115 4.61164H8.83023V3.18376H9.38945C9.71312 3.18376 9.97539 2.9508 9.97539 2.66344C9.97539 2.37609 9.71312 2.14313 9.38945 2.14313H8.83023V1.37084C8.83023 1.08349 8.56797 0.850525 8.2443 0.850525C7.92062 0.850525 7.65836 1.08349 7.65836 1.37084V2.14306H7.09922C6.77555 2.14306 6.51328 2.37602 6.51328 2.66337C6.51328 2.95073 6.77555 3.18369 7.09922 3.18369H7.65836V4.61157H5.97711C5.29797 4.61157 4.74531 5.10227 4.74531 5.70542V11.1487H3.66016C2.97437 11.1487 2.41641 11.6442 2.41641 12.2532V14.7831C2.41641 15.0705 2.67867 15.3034 3.00234 15.3034C3.32602 15.3034 3.58828 15.0705 3.58828 14.7831V12.2532C3.58828 12.218 3.62055 12.1894 3.66016 12.1894H12.8284C12.868 12.1894 12.9003 12.218 12.9003 12.2532V19.2007L10.8158 18.4396C10.6805 18.3904 10.5374 18.3654 10.3906 18.3654H10.3905H10.2709V16.506C10.2709 16.0369 9.84117 15.6554 9.31297 15.6554H7.1757C6.6475 15.6554 6.21773 16.0369 6.21773 16.506V18.3654H3.58828V16.8635C3.58828 16.5761 3.32602 16.3432 3.00234 16.3432C2.67867 16.3432 2.41641 16.5761 2.41641 16.8635V18.3654H0.585937C0.392422 18.3654 0.211484 18.4502 0.102266 18.592C-0.00687499 18.7338 -0.0302344 18.9144 0.0399219 19.0745L2.69687 25.1341L2.88477 25.5634C2.94047 25.6916 2.96875 25.8251 2.96875 25.9607V29.2095C2.96875 29.6507 3.06492 30.0875 3.24805 30.495C2.55141 30.935 1.87312 31.2899 0.585937 31.2899C0.262266 31.2899 0 31.5228 0 31.8102C0 32.0976 0.262266 32.3305 0.585937 32.3305C3.93984 32.3305 4.17961 30.2493 7.05758 30.2493C10.0101 30.2493 10.0866 32.3305 13.5292 32.3305C16.9753 32.3305 17.0445 30.2493 20.0005 30.2493C22.953 30.2493 23.0292 32.3305 26.4717 32.3305C29.9177 32.3305 29.987 30.2493 32.943 30.2493C35.896 30.2493 35.9705 32.3305 39.4141 32.3305C39.7377 32.3305 40 32.0976 40 31.8102C40 31.5228 39.7377 31.2898 39.4141 31.2898ZM5.91719 11.1488V5.70549C5.91719 5.67614 5.94406 5.65227 5.97711 5.65227H10.5114C10.5445 5.65227 10.5714 5.67614 10.5714 5.70549V11.1488H5.91719ZM25.557 20.4467V17.9953H31.0303V20.4467H25.557ZM32.2022 17.9952H37.6754V20.4466H32.2022V17.9952ZM37.6753 16.9546H32.2021V14.5031H37.6753V16.9546ZM25.557 14.5031H31.0303V16.9546H25.557V14.5031ZM24.3852 17.9952V20.4466H20.0041V17.9952H24.3852ZM16.9373 3.63005L18.6451 5.17532C18.7657 5.28445 18.8322 5.42882 18.8322 5.58172V20.4467H16.9373V3.63005ZM7.38961 16.696H9.09898V18.3654H7.38961V16.696ZM10.3804 19.4061C11.2713 19.7313 14.3656 20.861 15.683 21.3419C15.9467 21.4384 16.2248 21.4874 16.5094 21.4874H37.9604C36.8694 22.4653 35.944 23.4495 35.1976 24.4254H3.64336L1.44289 19.4061H10.3804ZM26.4717 31.2898C23.5187 31.2898 23.4441 29.2086 20.0005 29.2086C16.5511 29.2086 16.4895 31.2898 13.5292 31.2898C10.5759 31.2898 10.5014 29.2086 7.05758 29.2086C5.77508 29.2086 4.92898 29.5133 4.24891 29.8811C4.17828 29.6635 4.14062 29.4374 4.14062 29.2095V28.1848H23.7997C24.1234 28.1848 24.3856 27.9519 24.3856 27.6645C24.3856 27.377 24.1234 27.1442 23.7997 27.1442H4.14062V25.9605C4.14062 25.7933 4.11859 25.628 4.075 25.4659H34.4659C34.0893 26.0532 33.7943 26.6059 33.5558 27.1441H26.1424C25.8187 27.1441 25.5565 27.377 25.5565 27.6644C25.5565 27.9518 25.8187 28.1847 26.1424 28.1847H33.1595C33.0503 28.5253 32.9608 28.8674 32.8918 29.209C29.4968 29.231 29.4109 31.2898 26.4717 31.2898Z" fill="black"/>
<path d="M9.56067 33.7277C8.81427 33.7277 8.67709 33.0476 7.44608 33.0476C6.21422 33.0476 6.07992 33.7277 5.33142 33.7277C5.00775 33.7277 4.74548 33.9606 4.74548 34.248C4.74548 34.5354 5.00775 34.7683 5.33142 34.7683C6.56328 34.7683 6.69757 34.0882 7.44608 34.0882C8.1824 34.0882 8.33975 34.7683 9.56067 34.7683C9.88434 34.7683 10.1466 34.5354 10.1466 34.248C10.1466 33.9606 9.88434 33.7277 9.56067 33.7277Z" fill="black"/>
<path d="M22.1148 33.7277C21.3683 33.7277 21.2312 33.0476 20.0001 33.0476C18.7653 33.0476 18.6369 33.7277 17.8855 33.7277C17.5618 33.7277 17.2996 33.9606 17.2996 34.248C17.2996 34.5354 17.5618 34.7683 17.8855 34.7683C19.1172 34.7683 19.2517 34.0882 20.0001 34.0882C20.7466 34.0882 20.8837 34.7683 22.1148 34.7683C22.4384 34.7683 22.7007 34.5354 22.7007 34.248C22.7007 33.9606 22.4383 33.7277 22.1148 33.7277Z" fill="black"/>
<path d="M34.1456 33.7277C33.4093 33.7277 33.252 33.0476 32.031 33.0476C30.7992 33.0476 30.6649 33.7277 29.9164 33.7277C29.5927 33.7277 29.3304 33.9606 29.3304 34.248C29.3304 34.5354 29.5927 34.7683 29.9164 34.7683C31.1482 34.7683 31.2825 34.0882 32.031 34.0882C32.7774 34.0882 32.9146 34.7683 34.1456 34.7683C34.4693 34.7683 34.7316 34.5354 34.7316 34.248C34.7316 33.9606 34.4692 33.7277 34.1456 33.7277Z" fill="black"/>
<path d="M30.9573 23.5504H32.031C32.3547 23.5504 32.6169 23.3175 32.6169 23.0301C32.6169 22.7427 32.3547 22.5098 32.031 22.5098H30.9573C30.6336 22.5098 30.3713 22.7427 30.3713 23.0301C30.3713 23.3175 30.6337 23.5504 30.9573 23.5504Z" fill="black"/>
</svg>
